<svg width="312" height="200" viewBox="0 0 312 200" fill="none" xmlns="http://www.w3.org/2000/svg">
<g filter="url(#filter0_i_4102_73525)">
<rect width="312" height="200" fill="#F7F7F7"/>
<rect x="0.5" y="0.5" width="311" height="199" stroke="#EEEEEE"/>
<path d="M25.36 63.5V53.244H26.8V62.14H32.112V63.5H25.36ZM34.3434 54.508C33.8474 54.508 33.4634 54.108 33.4634 53.628C33.4634 53.148 33.8474 52.748 34.3434 52.748C34.8234 52.748 35.2234 53.148 35.2234 53.628C35.2234 54.108 34.8234 54.508 34.3434 54.508ZM35.0474 63.5H33.6394V55.836H35.0474V63.5ZM37.6081 63.5V55.836H39.0161V57.004C39.4481 56.156 40.2641 55.644 41.3361 55.644C43.1281 55.644 44.2961 56.876 44.2961 58.812V63.5H42.8881V59.036C42.8881 57.772 42.1521 56.972 40.9521 56.972C39.7521 56.972 39.0161 57.772 39.0161 59.036V63.5H37.6081ZM50.1891 63.692C47.8531 63.692 46.1731 61.884 46.1731 59.66C46.1731 57.436 47.7891 55.644 49.9651 55.644C52.1091 55.644 53.7411 57.356 53.7411 59.516C53.7411 59.708 53.7251 59.996 53.6931 60.108H47.6291C47.8051 61.436 48.8131 62.428 50.2371 62.428C51.1011 62.428 51.8691 62.092 52.3811 61.58L53.1331 62.556C52.5091 63.228 51.4211 63.692 50.1891 63.692ZM49.9811 56.86C48.7811 56.86 47.9171 57.724 47.6611 58.94H52.2531C51.9971 57.612 51.1331 56.86 49.9811 56.86ZM59.2819 63.5V53.244H60.7219V63.5H59.2819ZM62.4941 57.1V55.836H63.7581V53.932H65.1821V55.836H67.3581V57.1H65.1981V61.148C65.1981 61.964 65.5661 62.364 66.2541 62.364C66.6381 62.364 67.0221 62.22 67.2461 61.964L67.9021 63.036C67.5341 63.388 66.9101 63.692 66.0621 63.692C64.6221 63.692 63.7581 62.844 63.7581 61.196V57.1H62.4941ZM72.4548 63.692C70.1188 63.692 68.4388 61.884 68.4388 59.66C68.4388 57.436 70.0548 55.644 72.2308 55.644C74.3748 55.644 76.0068 57.356 76.0068 59.516C76.0068 59.708 75.9908 59.996 75.9588 60.108H69.8948C70.0707 61.436 71.0788 62.428 72.5028 62.428C73.3668 62.428 74.1348 62.092 74.6468 61.58L75.3988 62.556C74.7748 63.228 73.6868 63.692 72.4548 63.692ZM72.2468 56.86C71.0468 56.86 70.1828 57.724 69.9268 58.94H74.5188C74.2628 57.612 73.3988 56.86 72.2468 56.86ZM79.2505 63.5H77.8425V55.836H79.2505V57.052C79.6665 56.188 80.4665 55.644 81.5065 55.644C82.7385 55.644 83.6665 56.268 84.0985 57.34C84.4665 56.348 85.2985 55.644 86.5305 55.644C88.3065 55.644 89.4585 56.844 89.4585 58.812V63.5H88.0345V59.036C88.0345 57.772 87.3465 56.972 86.1945 56.972C85.0585 56.972 84.3545 57.772 84.3545 59.036V63.5H82.9305V59.036C82.9305 57.772 82.2425 56.972 81.1065 56.972C79.9545 56.972 79.2505 57.772 79.2505 59.036V63.5ZM98.9548 63.5H97.5468V54.956L95.7068 56.748L94.8588 55.804L97.5308 53.244H98.9548V63.5Z" fill="#333333"/>
<rect width="264" height="2" transform="translate(24 80.5)" fill="#666666"/>
<path d="M25.36 121.5V111.244H26.8V120.14H32.112V121.5H25.36ZM34.3434 112.508C33.8474 112.508 33.4634 112.108 33.4634 111.628C33.4634 111.148 33.8474 110.748 34.3434 110.748C34.8234 110.748 35.2234 111.148 35.2234 111.628C35.2234 112.108 34.8234 112.508 34.3434 112.508ZM35.0474 121.5H33.6394V113.836H35.0474V121.5ZM37.6081 121.5V113.836H39.0161V115.004C39.4481 114.156 40.2641 113.644 41.3361 113.644C43.1281 113.644 44.2961 114.876 44.2961 116.812V121.5H42.8881V117.036C42.8881 115.772 42.1521 114.972 40.9521 114.972C39.7521 114.972 39.0161 115.772 39.0161 117.036V121.5H37.6081ZM50.1891 121.692C47.8531 121.692 46.1731 119.884 46.1731 117.66C46.1731 115.436 47.7891 113.644 49.9651 113.644C52.1091 113.644 53.7411 115.356 53.7411 117.516C53.7411 117.708 53.7251 117.996 53.6931 118.108H47.6291C47.8051 119.436 48.8131 120.428 50.2371 120.428C51.1011 120.428 51.8691 120.092 52.3811 119.58L53.1331 120.556C52.5091 121.228 51.4211 121.692 50.1891 121.692ZM49.9811 114.86C48.7811 114.86 47.9171 115.724 47.6611 116.94H52.2531C51.9971 115.612 51.1331 114.86 49.9811 114.86ZM59.2819 121.5V111.244H60.7219V121.5H59.2819ZM62.4941 115.1V113.836H63.7581V111.932H65.1821V113.836H67.3581V115.1H65.1981V119.148C65.1981 119.964 65.5661 120.364 66.2541 120.364C66.6381 120.364 67.0221 120.22 67.2461 119.964L67.9021 121.036C67.5341 121.388 66.9101 121.692 66.0621 121.692C64.6221 121.692 63.7581 120.844 63.7581 119.196V115.1H62.4941ZM72.4548 121.692C70.1188 121.692 68.4388 119.884 68.4388 117.66C68.4388 115.436 70.0548 113.644 72.2308 113.644C74.3748 113.644 76.0068 115.356 76.0068 117.516C76.0068 117.708 75.9908 117.996 75.9588 118.108H69.8948C70.0707 119.436 71.0788 120.428 72.5028 120.428C73.3668 120.428 74.1348 120.092 74.6468 119.58L75.3988 120.556C74.7748 121.228 73.6868 121.692 72.4548 121.692ZM72.2468 114.86C71.0468 114.86 70.1828 115.724 69.9268 116.94H74.5188C74.2628 115.612 73.3988 114.86 72.2468 114.86ZM79.2505 121.5H77.8425V113.836H79.2505V115.052C79.6665 114.188 80.4665 113.644 81.5065 113.644C82.7385 113.644 83.6665 114.268 84.0985 115.34C84.4665 114.348 85.2985 113.644 86.5305 113.644C88.3065 113.644 89.4585 114.844 89.4585 116.812V121.5H88.0345V117.036C88.0345 115.772 87.3465 114.972 86.1945 114.972C85.0585 114.972 84.3545 115.772 84.3545 117.036V121.5H82.9305V117.036C82.9305 115.772 82.2425 114.972 81.1065 114.972C79.9545 114.972 79.2505 115.772 79.2505 117.036V121.5ZM94.5868 121.5V120.396L98.6028 116.54C99.4508 115.724 99.8668 115.02 99.8668 114.172C99.8668 113.212 99.0828 112.38 97.9148 112.38C96.8748 112.38 96.1228 112.972 95.6268 113.932L94.5068 113.212C95.0988 112.044 96.1708 111.052 97.9788 111.052C99.9948 111.052 101.275 112.476 101.275 114.156C101.275 115.276 100.827 116.172 99.5948 117.34L96.5388 120.236H101.387V121.5H94.5868Z" fill="#333333"/>
<rect width="264" height="1" transform="translate(24 150.5)" fill="#CCCCCC"/>
</g>
<defs>
<filter id="filter0_i_4102_73525" x="0" y="0" width="312" height="200" filterUnits="userSpaceOnUse" color-interpolation-filters="sRGB">
<feFlood flood-opacity="0" result="BackgroundImageFix"/>
<feBlend mode="normal" in="SourceGraphic" in2="BackgroundImageFix" result="shape"/>
<feColorMatrix in="SourceAlpha" type="matrix" values="0 0 0 0 0 0 0 0 0 0 0 0 0 0 0 0 0 0 127 0" result="hardAlpha"/>
<feOffset dy="4"/>
<feComposite in2="hardAlpha" operator="arithmetic" k2="-1" k3="1"/>
<feColorMatrix type="matrix" values="0 0 0 0 0.74902 0 0 0 0 0.0901961 0 0 0 0 0.133333 0 0 0 1 0"/>
<feBlend mode="normal" in2="shape" result="effect1_innerShadow_4102_73525"/>
</filter>
</defs>
</svg>
