<svg width="648" height="196" viewBox="0 0 648 196" fill="none" xmlns="http://www.w3.org/2000/svg">
<rect x="0.5" y="0.5" width="647" height="195" fill="#F7F7F7"/>
<rect x="0.5" y="0.5" width="647" height="195" stroke="#EEEEEE"/>
<path d="M177.368 65.016C176.888 64.888 176.28 64.584 175.496 64.072L176.36 62.392C177.224 62.936 178.472 63.32 179.48 63.32C180.488 63.32 181.24 62.952 181.24 62.136C181.24 60.312 175.848 61.176 175.848 57.544C175.848 55.64 177.592 54.52 179.672 54.52C180.968 54.52 182.184 54.872 183.128 55.592L182.152 57.176C181.496 56.744 180.472 56.392 179.576 56.392C178.648 56.392 177.992 56.824 177.992 57.496C177.992 59.368 183.368 58.536 183.368 62.024C183.368 64.136 181.512 65.208 179.336 65.208C178.488 65.208 177.832 65.144 177.368 65.016ZM184.195 59.064V57.336H185.539V55.352H187.507V57.336H189.571V59.064H187.523V62.328C187.523 63.048 187.811 63.384 188.387 63.384C188.755 63.384 189.107 63.224 189.299 63L190.163 64.456C189.747 64.872 189.027 65.208 188.083 65.208C186.531 65.208 185.539 64.248 185.539 62.376V59.064H184.195ZM191.463 65V57.336H193.415V58.472C193.783 57.656 194.439 57.128 195.303 57.128C195.815 57.128 196.231 57.256 196.519 57.496L195.719 59.336C195.463 59.144 195.079 59.016 194.695 59.016C193.927 59.016 193.415 59.672 193.415 60.712V65H191.463ZM200.829 65.208C198.445 65.208 196.717 63.4 196.717 61.16C196.717 58.936 198.365 57.128 200.573 57.128C202.765 57.128 204.445 58.808 204.445 61.016C204.445 61.272 204.429 61.576 204.397 61.704H198.717C198.925 62.76 199.725 63.496 200.893 63.496C201.677 63.496 202.333 63.16 202.781 62.696L203.789 64.04C203.197 64.696 202.109 65.208 200.829 65.208ZM200.605 58.776C199.677 58.776 199.005 59.416 198.765 60.344H202.429C202.189 59.32 201.501 58.776 200.605 58.776ZM209.626 65.208C207.242 65.208 205.514 63.4 205.514 61.16C205.514 58.936 207.162 57.128 209.37 57.128C211.562 57.128 213.242 58.808 213.242 61.016C213.242 61.272 213.226 61.576 213.194 61.704H207.514C207.722 62.76 208.522 63.496 209.69 63.496C210.474 63.496 211.13 63.16 211.578 62.696L212.586 64.04C211.994 64.696 210.906 65.208 209.626 65.208ZM209.402 58.776C208.474 58.776 207.802 59.416 207.562 60.344H211.226C210.986 59.32 210.298 58.776 209.402 58.776ZM214.023 59.064V57.336H215.367V55.352H217.335V57.336H219.399V59.064H217.351V62.328C217.351 63.048 217.639 63.384 218.215 63.384C218.583 63.384 218.935 63.224 219.127 63L219.991 64.456C219.575 64.872 218.855 65.208 217.911 65.208C216.359 65.208 215.367 64.248 215.367 62.376V59.064H214.023ZM232.201 65L231.305 62.696H226.825L225.929 65H223.833L227.945 54.744H230.297L234.425 65H232.201ZM227.497 60.92H230.633L229.065 56.872L227.497 60.92ZM238.6 65.208C236.584 65.208 234.936 63.56 234.936 61.16C234.936 58.856 236.488 57.128 238.6 57.128C239.64 57.128 240.44 57.592 240.952 58.344V53.992H242.904V65H240.952V63.912C240.44 64.696 239.64 65.208 238.6 65.208ZM238.92 63.384C240.104 63.384 240.952 62.392 240.952 61.16C240.952 59.928 240.104 58.952 238.92 58.952C237.736 58.952 236.888 59.928 236.888 61.16C236.888 62.392 237.736 63.384 238.92 63.384ZM248.24 65.208C246.224 65.208 244.576 63.56 244.576 61.16C244.576 58.856 246.128 57.128 248.24 57.128C249.28 57.128 250.08 57.592 250.592 58.344V53.992H252.544V65H250.592V63.912C250.08 64.696 249.28 65.208 248.24 65.208ZM248.56 63.384C249.744 63.384 250.592 62.392 250.592 61.16C250.592 59.928 249.744 58.952 248.56 58.952C247.376 58.952 246.528 59.928 246.528 61.16C246.528 62.392 247.376 63.384 248.56 63.384ZM254.713 65V57.336H256.665V58.472C257.033 57.656 257.689 57.128 258.553 57.128C259.065 57.128 259.481 57.256 259.769 57.496L258.969 59.336C258.713 59.144 258.329 59.016 257.945 59.016C257.177 59.016 256.665 59.672 256.665 60.712V65H254.713ZM264.079 65.208C261.695 65.208 259.967 63.4 259.967 61.16C259.967 58.936 261.615 57.128 263.823 57.128C266.015 57.128 267.695 58.808 267.695 61.016C267.695 61.272 267.679 61.576 267.647 61.704H261.967C262.175 62.76 262.975 63.496 264.143 63.496C264.927 63.496 265.583 63.16 266.031 62.696L267.039 64.04C266.447 64.696 265.359 65.208 264.079 65.208ZM263.855 58.776C262.927 58.776 262.255 59.416 262.015 60.344H265.679C265.439 59.32 264.751 58.776 263.855 58.776ZM271.565 65.208C270.333 65.208 269.325 64.888 268.573 64.472L269.197 62.968C270.077 63.384 270.813 63.608 271.661 63.608C272.525 63.608 272.925 63.304 272.925 62.856C272.925 61.48 268.797 62.296 268.797 59.4C268.797 58.248 269.821 57.128 271.789 57.128C272.861 57.128 273.677 57.352 274.653 57.816L273.933 59.272C273.389 58.968 272.573 58.728 271.949 58.728C271.213 58.728 270.765 58.968 270.765 59.384C270.765 60.792 274.861 59.912 274.861 62.824C274.861 64.152 273.677 65.208 271.565 65.208ZM278.815 65.208C277.583 65.208 276.575 64.888 275.823 64.472L276.447 62.968C277.327 63.384 278.063 63.608 278.911 63.608C279.775 63.608 280.175 63.304 280.175 62.856C280.175 61.48 276.047 62.296 276.047 59.4C276.047 58.248 277.071 57.128 279.039 57.128C280.111 57.128 280.927 57.352 281.903 57.816L281.183 59.272C280.639 58.968 279.823 58.728 279.199 58.728C278.463 58.728 278.015 58.968 278.015 59.384C278.015 60.792 282.111 59.912 282.111 62.824C282.111 64.152 280.927 65.208 278.815 65.208ZM287.215 65V54.744H289.215V63.112H294.223V65H287.215ZM296.502 56.312C295.862 56.312 295.366 55.8 295.366 55.16C295.366 54.536 295.862 54.024 296.502 54.024C297.126 54.024 297.654 54.536 297.654 55.16C297.654 55.8 297.126 56.312 296.502 56.312ZM297.478 65H295.526V57.336H297.478V65ZM299.666 65V57.336H301.618V58.424C302.018 57.608 302.786 57.128 303.794 57.128C305.554 57.128 306.69 58.36 306.69 60.36V65H304.738V60.648C304.738 59.608 304.146 58.952 303.186 58.952C302.226 58.952 301.618 59.608 301.618 60.648V65H299.666ZM312.423 65.208C310.039 65.208 308.311 63.4 308.311 61.16C308.311 58.936 309.959 57.128 312.167 57.128C314.359 57.128 316.039 58.808 316.039 61.016C316.039 61.272 316.023 61.576 315.991 61.704H310.311C310.519 62.76 311.319 63.496 312.487 63.496C313.271 63.496 313.927 63.16 314.375 62.696L315.383 64.04C314.791 64.696 313.703 65.208 312.423 65.208ZM312.199 58.776C311.271 58.776 310.599 59.416 310.359 60.344H314.023C313.783 59.32 313.095 58.776 312.199 58.776ZM320.354 65V63.512L324.21 59.816C324.946 59.112 325.298 58.488 325.298 57.784C325.298 56.984 324.658 56.36 323.73 56.36C322.834 56.36 322.162 56.904 321.698 57.848L320.162 56.84C320.738 55.64 321.874 54.536 323.826 54.536C325.954 54.536 327.25 55.992 327.25 57.752C327.25 58.84 326.77 59.768 325.57 60.888L323.026 63.272H327.314V65H320.354Z" fill="#333333"/>
<path d="M341.704 54.858C344.238 54.858 346.296 56.958 346.296 59.534C346.296 62.096 344.238 64.168 341.704 64.168C339.17 64.168 337.112 62.082 337.112 59.52C337.112 56.944 339.17 54.858 341.704 54.858ZM341.704 62.922C343.51 62.922 344.966 61.396 344.966 59.534C344.966 57.644 343.51 56.104 341.704 56.104C339.912 56.104 338.456 57.63 338.456 59.52C338.456 61.396 339.912 62.922 341.704 62.922ZM349.332 66.744H348.1V57.294H349.332V58.498C349.836 57.672 350.634 57.126 351.684 57.126C353.504 57.126 354.932 58.624 354.932 60.654C354.932 62.642 353.56 64.168 351.684 64.168C350.634 64.168 349.836 63.664 349.332 62.838V66.744ZM351.53 63.006C352.79 63.006 353.7 61.97 353.7 60.654C353.7 59.352 352.79 58.288 351.53 58.288C350.256 58.288 349.332 59.352 349.332 60.654C349.332 61.97 350.256 63.006 351.53 63.006ZM355.93 58.4V57.294H357.036V55.628H358.282V57.294H360.186V58.4H358.296V61.942C358.296 62.656 358.618 63.006 359.22 63.006C359.556 63.006 359.892 62.88 360.088 62.656L360.662 63.594C360.34 63.902 359.794 64.168 359.052 64.168C357.792 64.168 357.036 63.426 357.036 61.984V58.4H355.93ZM362.607 56.132C362.173 56.132 361.837 55.782 361.837 55.362C361.837 54.942 362.173 54.592 362.607 54.592C363.027 54.592 363.377 54.942 363.377 55.362C363.377 55.782 363.027 56.132 362.607 56.132ZM363.223 64H361.991V57.294H363.223V64ZM368.39 64.168C366.472 64.168 364.974 62.586 364.974 60.64C364.974 58.694 366.472 57.126 368.39 57.126C370.322 57.126 371.82 58.694 371.82 60.64C371.82 62.586 370.322 64.168 368.39 64.168ZM368.404 63.006C369.664 63.006 370.574 61.942 370.574 60.64C370.574 59.324 369.664 58.288 368.404 58.288C367.13 58.288 366.22 59.324 366.22 60.64C366.22 61.942 367.13 63.006 368.404 63.006ZM373.571 64V57.294H374.803V58.316C375.181 57.574 375.895 57.126 376.833 57.126C378.401 57.126 379.423 58.204 379.423 59.898V64H378.191V60.094C378.191 58.988 377.547 58.288 376.497 58.288C375.447 58.288 374.803 58.988 374.803 60.094V64H373.571ZM384.314 64.168C382.494 64.168 381.066 62.67 381.066 60.64C381.066 58.652 382.438 57.126 384.314 57.126C385.364 57.126 386.162 57.63 386.666 58.456V57.294H387.912V64H386.666V62.796C386.162 63.622 385.364 64.168 384.314 64.168ZM384.496 63.006C385.756 63.006 386.666 61.942 386.666 60.64C386.666 59.324 385.756 58.288 384.496 58.288C383.222 58.288 382.312 59.324 382.312 60.64C382.312 61.942 383.222 63.006 384.496 63.006ZM392.325 62.922L392.465 64.014C392.255 64.084 391.989 64.14 391.779 64.14C390.939 64.14 390.141 63.58 390.141 62.18V54.368H391.373V62.194C391.373 62.782 391.695 62.992 392.017 62.992C392.115 62.992 392.227 62.964 392.325 62.922Z" fill="#666666"/>
<mask id="path-4-inside-1_4102_62487" fill="white">
<path d="M175 76H473V120H175V76Z"/>
</mask>
<path d="M175 76H473V120H175V76Z" fill="white"/>
<path d="M175 76V75H174V76H175ZM473 76H474V75H473V76ZM473 120V121H474V120H473ZM175 120H174V121H175V120ZM175 77H473V75H175V77ZM472 76V120H474V76H472ZM473 119H175V121H473V119ZM176 120V76H174V120H176Z" fill="#00739A" mask="url(#path-4-inside-1_4102_62487)"/>
<path d="M187.322 102V101.034L190.836 97.66C191.578 96.946 191.942 96.33 191.942 95.588C191.942 94.748 191.256 94.02 190.234 94.02C189.324 94.02 188.666 94.538 188.232 95.378L187.252 94.748C187.77 93.726 188.708 92.858 190.29 92.858C192.054 92.858 193.174 94.104 193.174 95.574C193.174 96.554 192.782 97.338 191.704 98.36L189.03 100.894H193.272V102H187.322ZM198.021 102.168C196.075 102.168 194.633 100.194 194.633 97.506C194.633 94.832 196.047 92.858 197.979 92.858C199.953 92.858 201.367 94.832 201.381 97.506C201.395 100.194 199.981 102.168 198.021 102.168ZM198.007 101.006C199.253 101.006 200.135 99.564 200.135 97.506C200.135 95.462 199.253 94.02 197.979 94.02C196.747 94.02 195.879 95.462 195.879 97.506C195.879 99.564 196.761 101.006 198.007 101.006ZM206.265 102H205.033V94.524L203.423 96.092L202.681 95.266L205.019 93.026H206.265V102ZM216.872 100.236L213.526 95.042V102H212.266V93.026H213.708L216.928 98.066L220.176 93.026H221.464V102H220.204V95.168L216.872 100.236ZM226.534 102.168C224.714 102.168 223.286 100.67 223.286 98.64C223.286 96.652 224.658 95.126 226.534 95.126C227.584 95.126 228.382 95.63 228.886 96.456V95.294H230.132V102H228.886V100.796C228.382 101.622 227.584 102.168 226.534 102.168ZM226.716 101.006C227.976 101.006 228.886 99.942 228.886 98.64C228.886 97.324 227.976 96.288 226.716 96.288C225.442 96.288 224.532 97.324 224.532 98.64C224.532 99.942 225.442 101.006 226.716 101.006ZM232.978 94.132C232.544 94.132 232.208 93.782 232.208 93.362C232.208 92.942 232.544 92.592 232.978 92.592C233.398 92.592 233.748 92.942 233.748 93.362C233.748 93.782 233.398 94.132 232.978 94.132ZM233.594 102H232.362V95.294H233.594V102ZM235.835 102V95.294H237.067V96.316C237.445 95.574 238.159 95.126 239.097 95.126C240.665 95.126 241.687 96.204 241.687 97.898V102H240.455V98.094C240.455 96.988 239.811 96.288 238.761 96.288C237.711 96.288 237.067 96.988 237.067 98.094V102H235.835ZM248.013 102.014C247.607 101.902 247.075 101.636 246.403 101.202L247.005 100.11C247.803 100.628 248.867 100.964 249.777 100.964C250.869 100.964 251.709 100.502 251.709 99.578C251.709 97.66 246.697 98.57 246.697 95.378C246.697 93.852 248.083 92.844 249.875 92.844C251.023 92.844 251.989 93.138 252.759 93.684L252.129 94.72C251.555 94.356 250.687 94.034 249.819 94.034C248.769 94.034 248.041 94.594 248.041 95.35C248.041 97.394 253.039 96.498 253.039 99.494C253.039 101.286 251.513 102.168 249.693 102.168C248.979 102.168 248.419 102.112 248.013 102.014ZM253.946 96.4V95.294H255.052V93.628H256.298V95.294H258.202V96.4H256.312V99.942C256.312 100.656 256.634 101.006 257.236 101.006C257.572 101.006 257.908 100.88 258.104 100.656L258.678 101.594C258.356 101.902 257.81 102.168 257.068 102.168C255.808 102.168 255.052 101.426 255.052 99.984V96.4H253.946Z" fill="#333333"/>
<rect x="259" y="90" width="2" height="16" rx="1" fill="#007EA8"/>
<path fill-rule="evenodd" clip-rule="evenodd" d="M443.84 106.333L442.666 105.159L449.825 97.9998L442.666 90.8407L443.84 89.6665L450.999 96.8257L458.159 89.6665L459.333 90.8407L452.174 97.9998L459.333 105.159L458.159 106.333L450.999 99.174L443.84 106.333Z" fill="#00739A"/>
<mask id="mask0_4102_62487" style="mask-type:luminance" maskUnits="userSpaceOnUse" x="442" y="89" width="18" height="18">
<path fill-rule="evenodd" clip-rule="evenodd" d="M443.84 106.333L442.666 105.159L449.825 97.9998L442.666 90.8407L443.84 89.6665L450.999 96.8257L458.159 89.6665L459.333 90.8407L452.174 97.9998L459.333 105.159L458.159 106.333L450.999 99.174L443.84 106.333Z" fill="white"/>
</mask>
<g mask="url(#mask0_4102_62487)">
</g>
<path fill-rule="evenodd" clip-rule="evenodd" d="M185 125C190.514 125 195 129.486 195 135C195 140.514 190.514 145 185 145C179.486 145 175 140.514 175 135C175 129.486 179.486 125 185 125ZM185 126.538C180.319 126.538 176.538 130.319 176.538 135C176.538 139.681 180.319 143.462 185 143.462C189.681 143.462 193.462 139.681 193.462 135C193.462 130.319 189.681 126.538 185 126.538ZM185.769 133.462V139.615H184.231V133.462H185.769ZM185.769 130.385V131.923H184.231V130.385H185.769Z" fill="#00739A"/>
<mask id="mask1_4102_62487" style="mask-type:luminance" maskUnits="userSpaceOnUse" x="175" y="125" width="20" height="20">
<path fill-rule="evenodd" clip-rule="evenodd" d="M185 125C190.514 125 195 129.486 195 135C195 140.514 190.514 145 185 145C179.486 145 175 140.514 175 135C175 129.486 179.486 125 185 125ZM185 126.538C180.319 126.538 176.538 130.319 176.538 135C176.538 139.681 180.319 143.462 185 143.462C189.681 143.462 193.462 139.681 193.462 135C193.462 130.319 189.681 126.538 185 126.538ZM185.769 133.462V139.615H184.231V133.462H185.769ZM185.769 130.385V131.923H184.231V130.385H185.769Z" fill="white"/>
</mask>
<g mask="url(#mask1_4102_62487)">
</g>
<path d="M200.19 141V132.026H205.888V133.216H201.45V135.904H205.328V137.094H201.45V139.81H205.888V141H200.19ZM207.53 141V134.294H208.762V135.316C209.14 134.574 209.854 134.126 210.792 134.126C212.36 134.126 213.382 135.204 213.382 136.898V141H212.15V137.094C212.15 135.988 211.506 135.288 210.456 135.288C209.406 135.288 208.762 135.988 208.762 137.094V141H207.53ZM214.759 135.4V134.294H215.865V132.628H217.111V134.294H219.015V135.4H217.125V138.942C217.125 139.656 217.447 140.006 218.049 140.006C218.385 140.006 218.721 139.88 218.917 139.656L219.491 140.594C219.169 140.902 218.623 141.168 217.881 141.168C216.621 141.168 215.865 140.426 215.865 138.984V135.4H214.759ZM223.474 141.168C221.43 141.168 219.96 139.586 219.96 137.64C219.96 135.694 221.374 134.126 223.278 134.126C225.154 134.126 226.582 135.624 226.582 137.514C226.582 137.682 226.568 137.934 226.54 138.032H221.234C221.388 139.194 222.27 140.062 223.516 140.062C224.272 140.062 224.944 139.768 225.392 139.32L226.05 140.174C225.504 140.762 224.552 141.168 223.474 141.168ZM223.292 135.19C222.242 135.19 221.486 135.946 221.262 137.01H225.28C225.056 135.848 224.3 135.19 223.292 135.19ZM228.188 141V134.294H229.42V135.246C229.756 134.546 230.33 134.126 231.114 134.126C231.534 134.126 231.898 134.224 232.136 134.42L231.618 135.582C231.394 135.428 231.072 135.316 230.75 135.316C229.938 135.316 229.42 136.016 229.42 137.136V141H228.188ZM238.458 141.658L238.668 141.084L235.63 134.294H236.974L239.228 139.53L241.132 134.294H242.392L239.494 142.092C239.046 143.31 238.36 143.912 237.324 143.912C236.736 143.912 236.134 143.674 235.714 143.296L236.288 142.33C236.596 142.61 236.96 142.75 237.352 142.75C237.842 142.75 238.164 142.47 238.458 141.658ZM246.386 141.168C244.468 141.168 242.97 139.586 242.97 137.64C242.97 135.694 244.468 134.126 246.386 134.126C248.318 134.126 249.816 135.694 249.816 137.64C249.816 139.586 248.318 141.168 246.386 141.168ZM246.4 140.006C247.66 140.006 248.57 138.942 248.57 137.64C248.57 136.324 247.66 135.288 246.4 135.288C245.126 135.288 244.216 136.324 244.216 137.64C244.216 138.942 245.126 140.006 246.4 140.006ZM252.701 134.294V138.004C252.701 139.18 253.387 139.964 254.423 139.964C255.473 139.964 256.173 139.18 256.173 138.004V134.294H257.419V138.102C257.419 139.922 256.229 141.126 254.423 141.126C252.631 141.126 251.455 139.922 251.455 138.102V134.294H252.701ZM259.552 141V134.294H260.784V135.246C261.12 134.546 261.694 134.126 262.478 134.126C262.898 134.126 263.262 134.224 263.5 134.42L262.982 135.582C262.758 135.428 262.436 135.316 262.114 135.316C261.302 135.316 260.784 136.016 260.784 137.136V141H259.552ZM267.987 141V131.368H269.219V135.316C269.597 134.574 270.311 134.126 271.249 134.126C272.817 134.126 273.839 135.204 273.839 136.898V141H272.607V137.094C272.607 135.988 271.963 135.288 270.913 135.288C269.863 135.288 269.219 135.988 269.219 137.094V141H267.987ZM278.898 141.168C276.98 141.168 275.482 139.586 275.482 137.64C275.482 135.694 276.98 134.126 278.898 134.126C280.83 134.126 282.328 135.694 282.328 137.64C282.328 139.586 280.83 141.168 278.898 141.168ZM278.912 140.006C280.172 140.006 281.082 138.942 281.082 137.64C281.082 136.324 280.172 135.288 278.912 135.288C277.638 135.288 276.728 136.324 276.728 137.64C276.728 138.942 277.638 140.006 278.912 140.006ZM285.213 134.294V138.004C285.213 139.18 285.899 139.964 286.935 139.964C287.985 139.964 288.685 139.18 288.685 138.004V134.294H289.931V138.102C289.931 139.922 288.741 141.126 286.935 141.126C285.143 141.126 283.967 139.922 283.967 138.102V134.294H285.213ZM293.953 141.168C292.959 141.168 292.063 140.902 291.377 140.496L291.853 139.474C292.609 139.866 293.267 140.09 294.037 140.09C294.975 140.09 295.423 139.726 295.423 139.194C295.423 137.668 291.615 138.592 291.615 136.002C291.615 135.008 292.511 134.126 294.135 134.126C295.045 134.126 295.759 134.35 296.487 134.7L295.997 135.722C295.521 135.456 294.835 135.218 294.191 135.218C293.365 135.218 292.875 135.498 292.875 135.988C292.875 137.528 296.655 136.618 296.655 139.166C296.655 140.314 295.661 141.168 293.953 141.168ZM301.322 141.168C299.278 141.168 297.808 139.586 297.808 137.64C297.808 135.694 299.222 134.126 301.126 134.126C303.002 134.126 304.43 135.624 304.43 137.514C304.43 137.682 304.416 137.934 304.388 138.032H299.082C299.236 139.194 300.118 140.062 301.364 140.062C302.12 140.062 302.792 139.768 303.24 139.32L303.898 140.174C303.352 140.762 302.4 141.168 301.322 141.168ZM301.14 135.19C300.09 135.19 299.334 135.946 299.11 137.01H303.128C302.904 135.848 302.148 135.19 301.14 135.19ZM309.208 141V134.294H310.44V135.316C310.818 134.574 311.532 134.126 312.47 134.126C314.038 134.126 315.06 135.204 315.06 136.898V141H313.828V137.094C313.828 135.988 313.184 135.288 312.134 135.288C311.084 135.288 310.44 135.988 310.44 137.094V141H309.208ZM318.326 134.294V138.004C318.326 139.18 319.012 139.964 320.048 139.964C321.098 139.964 321.798 139.18 321.798 138.004V134.294H323.044V138.102C323.044 139.922 321.854 141.126 320.048 141.126C318.256 141.126 317.08 139.922 317.08 138.102V134.294H318.326ZM326.409 141H325.177V134.294H326.409V135.358C326.773 134.602 327.473 134.126 328.383 134.126C329.461 134.126 330.273 134.672 330.651 135.61C330.973 134.742 331.701 134.126 332.779 134.126C334.333 134.126 335.341 135.176 335.341 136.898V141H334.095V137.094C334.095 135.988 333.493 135.288 332.485 135.288C331.491 135.288 330.875 135.988 330.875 137.094V141H329.629V137.094C329.629 135.988 329.027 135.288 328.033 135.288C327.025 135.288 326.409 135.988 326.409 137.094V141ZM341.038 134.126C342.858 134.126 344.286 135.624 344.286 137.654C344.286 139.642 342.914 141.168 341.038 141.168C339.988 141.168 339.19 140.664 338.686 139.838V141H337.454V131.368H338.686V135.498C339.19 134.672 339.988 134.126 341.038 134.126ZM340.884 135.288C339.61 135.288 338.686 136.352 338.686 137.654C338.686 138.97 339.61 140.006 340.884 140.006C342.144 140.006 343.054 138.97 343.054 137.654C343.054 136.352 342.144 135.288 340.884 135.288ZM349.064 141.168C347.02 141.168 345.55 139.586 345.55 137.64C345.55 135.694 346.964 134.126 348.868 134.126C350.744 134.126 352.172 135.624 352.172 137.514C352.172 137.682 352.158 137.934 352.13 138.032H346.824C346.978 139.194 347.86 140.062 349.106 140.062C349.862 140.062 350.534 139.768 350.982 139.32L351.64 140.174C351.094 140.762 350.142 141.168 349.064 141.168ZM348.882 135.19C347.832 135.19 347.076 135.946 346.852 137.01H350.87C350.646 135.848 349.89 135.19 348.882 135.19ZM353.778 141V134.294H355.01V135.246C355.346 134.546 355.92 134.126 356.704 134.126C357.124 134.126 357.488 134.224 357.726 134.42L357.208 135.582C356.984 135.428 356.662 135.316 356.34 135.316C355.528 135.316 355.01 136.016 355.01 137.136V141H353.778ZM364.972 141.168C363.152 141.168 361.724 139.67 361.724 137.64C361.724 135.652 363.096 134.126 364.972 134.126C366.022 134.126 366.82 134.63 367.324 135.456V134.294H368.57V141H367.324V139.796C366.82 140.622 366.022 141.168 364.972 141.168ZM365.154 140.006C366.414 140.006 367.324 138.942 367.324 137.64C367.324 136.324 366.414 135.288 365.154 135.288C363.88 135.288 362.97 136.324 362.97 137.64C362.97 138.942 363.88 140.006 365.154 140.006ZM370.8 141V134.294H372.032V135.316C372.41 134.574 373.124 134.126 374.062 134.126C375.63 134.126 376.652 135.204 376.652 136.898V141H375.42V137.094C375.42 135.988 374.776 135.288 373.726 135.288C372.676 135.288 372.032 135.988 372.032 137.094V141H370.8ZM381.542 141.168C379.722 141.168 378.294 139.67 378.294 137.64C378.294 135.652 379.666 134.126 381.542 134.126C382.592 134.126 383.39 134.63 383.894 135.456V131.368H385.14V141H383.894V139.796C383.39 140.622 382.592 141.168 381.542 141.168ZM381.724 140.006C382.984 140.006 383.894 138.942 383.894 137.64C383.894 136.324 382.984 135.288 381.724 135.288C380.45 135.288 379.54 136.324 379.54 137.64C379.54 138.942 380.45 140.006 381.724 140.006ZM392.432 141.168C391.438 141.168 390.542 140.902 389.856 140.496L390.332 139.474C391.088 139.866 391.746 140.09 392.516 140.09C393.454 140.09 393.902 139.726 393.902 139.194C393.902 137.668 390.094 138.592 390.094 136.002C390.094 135.008 390.99 134.126 392.614 134.126C393.524 134.126 394.238 134.35 394.966 134.7L394.476 135.722C394 135.456 393.314 135.218 392.67 135.218C391.844 135.218 391.354 135.498 391.354 135.988C391.354 137.528 395.134 136.618 395.134 139.166C395.134 140.314 394.14 141.168 392.432 141.168ZM396.02 135.4V134.294H397.126V132.628H398.372V134.294H400.276V135.4H398.386V138.942C398.386 139.656 398.708 140.006 399.31 140.006C399.646 140.006 399.982 139.88 400.178 139.656L400.752 140.594C400.43 140.902 399.884 141.168 399.142 141.168C397.882 141.168 397.126 140.426 397.126 138.984V135.4H396.02ZM402.081 141V134.294H403.313V135.246C403.649 134.546 404.223 134.126 405.007 134.126C405.427 134.126 405.791 134.224 406.029 134.42L405.511 135.582C405.287 135.428 404.965 135.316 404.643 135.316C403.831 135.316 403.313 136.016 403.313 137.136V141H402.081ZM409.808 141.168C407.764 141.168 406.294 139.586 406.294 137.64C406.294 135.694 407.708 134.126 409.612 134.126C411.488 134.126 412.916 135.624 412.916 137.514C412.916 137.682 412.902 137.934 412.874 138.032H407.568C407.722 139.194 408.604 140.062 409.85 140.062C410.606 140.062 411.278 139.768 411.726 139.32L412.384 140.174C411.838 140.762 410.886 141.168 409.808 141.168ZM409.626 135.19C408.576 135.19 407.82 135.946 407.596 137.01H411.614C411.39 135.848 410.634 135.19 409.626 135.19ZM417.546 141.168C415.502 141.168 414.032 139.586 414.032 137.64C414.032 135.694 415.446 134.126 417.35 134.126C419.226 134.126 420.654 135.624 420.654 137.514C420.654 137.682 420.64 137.934 420.612 138.032H415.306C415.46 139.194 416.342 140.062 417.588 140.062C418.344 140.062 419.016 139.768 419.464 139.32L420.122 140.174C419.576 140.762 418.624 141.168 417.546 141.168ZM417.364 135.19C416.314 135.19 415.558 135.946 415.334 137.01H419.352C419.128 135.848 418.372 135.19 417.364 135.19ZM421.505 135.4V134.294H422.611V132.628H423.857V134.294H425.761V135.4H423.871V138.942C423.871 139.656 424.193 140.006 424.795 140.006C425.131 140.006 425.467 139.88 425.663 139.656L426.237 140.594C425.915 140.902 425.369 141.168 424.627 141.168C423.367 141.168 422.611 140.426 422.611 138.984V135.4H421.505ZM430.737 141V134.294H431.969V135.316C432.347 134.574 433.061 134.126 433.999 134.126C435.567 134.126 436.589 135.204 436.589 136.898V141H435.357V137.094C435.357 135.988 434.713 135.288 433.663 135.288C432.613 135.288 431.969 135.988 431.969 137.094V141H430.737ZM441.48 141.168C439.66 141.168 438.232 139.67 438.232 137.64C438.232 135.652 439.604 134.126 441.48 134.126C442.53 134.126 443.328 134.63 443.832 135.456V134.294H445.078V141H443.832V139.796C443.328 140.622 442.53 141.168 441.48 141.168ZM441.662 140.006C442.922 140.006 443.832 138.942 443.832 137.64C443.832 136.324 442.922 135.288 441.662 135.288C440.388 135.288 439.478 136.324 439.478 137.64C439.478 138.942 440.388 140.006 441.662 140.006ZM448.54 141H447.308V134.294H448.54V135.358C448.904 134.602 449.604 134.126 450.514 134.126C451.592 134.126 452.404 134.672 452.782 135.61C453.104 134.742 453.832 134.126 454.91 134.126C456.464 134.126 457.472 135.176 457.472 136.898V141H456.226V137.094C456.226 135.988 455.624 135.288 454.616 135.288C453.622 135.288 453.006 135.988 453.006 137.094V141H451.76V137.094C451.76 135.988 451.158 135.288 450.164 135.288C449.156 135.288 448.54 135.988 448.54 137.094V141ZM462.609 141.168C460.565 141.168 459.095 139.586 459.095 137.64C459.095 135.694 460.509 134.126 462.413 134.126C464.289 134.126 465.717 135.624 465.717 137.514C465.717 137.682 465.703 137.934 465.675 138.032H460.369C460.523 139.194 461.405 140.062 462.651 140.062C463.407 140.062 464.079 139.768 464.527 139.32L465.185 140.174C464.639 140.762 463.687 141.168 462.609 141.168ZM462.427 135.19C461.377 135.19 460.621 135.946 460.397 137.01H464.415C464.191 135.848 463.435 135.19 462.427 135.19ZM467.76 141.126C467.298 141.126 466.906 140.748 466.906 140.272C466.906 139.796 467.298 139.39 467.76 139.39C468.25 139.39 468.642 139.796 468.642 140.272C468.642 140.748 468.25 141.126 467.76 141.126Z" fill="#333333"/>
<path d="M135 101H162" stroke="#BF1722" stroke-width="2"/>
<rect x="105" y="91" width="48" height="20" rx="10" fill="#BF1722"/>
<path d="M120.814 102.933H119.748V105H118.344V102.933H114.626V101.919L117.2 95.848L118.422 96.329L116.147 101.802H118.357L118.5 99.41H119.748V101.802H120.814V102.933ZM128.609 102.933H127.543V105H126.139V102.933H122.421V101.919L124.995 95.848L126.217 96.329L123.942 101.802H126.152L126.295 99.41H127.543V101.802H128.609V102.933ZM133.921 97.954C135.585 97.954 136.417 99.1543 136.417 101.555C136.417 102.638 136.187 103.514 135.728 104.181C135.269 104.84 134.614 105.169 133.765 105.169C133.046 105.169 132.465 104.918 132.023 104.415V107.639L130.567 107.808V98.136H131.828L131.919 99.02C132.179 98.6733 132.478 98.409 132.816 98.227C133.163 98.045 133.531 97.954 133.921 97.954ZM133.518 99.072C133.215 99.072 132.937 99.163 132.686 99.345C132.435 99.527 132.214 99.7653 132.023 100.06V103.271C132.361 103.782 132.812 104.038 133.375 104.038C133.878 104.038 134.255 103.839 134.506 103.44C134.757 103.041 134.883 102.417 134.883 101.568C134.883 100.693 134.77 100.06 134.545 99.67C134.32 99.2713 133.977 99.072 133.518 99.072ZM137.764 105L140.234 101.386L138.037 98.136H139.714L141.118 100.554L142.522 98.136H144.121L141.976 101.321L144.446 105H142.743L141.053 102.192L139.376 105H137.764Z" fill="white"/>
<path d="M167 79L164 79C163.448 79 163 79.4477 163 80L163 122C163 122.552 163.448 123 164 123L167 123" stroke="#BF1722" stroke-width="2" stroke-linecap="round"/>
<path d="M324 17L324 42" stroke="#BF1722" stroke-width="2"/>
<rect x="296.5" y="15" width="55" height="20" rx="10" fill="#BF1722"/>
<path d="M307.672 24.034H311.052V25.178H307.672V29H306.164V20.03H311.676L311.52 21.174H307.672V24.034ZM316.481 27.128C316.481 27.7087 316.827 27.999 317.521 27.999C317.867 27.999 318.231 27.921 318.613 27.765L318.977 28.779C318.5 29.039 317.911 29.169 317.209 29.169C316.524 29.169 315.987 28.9783 315.597 28.597C315.215 28.207 315.025 27.674 315.025 26.998V20.446H312.958V19.38H316.481V27.128ZM322.716 26.933C322.716 27.3317 322.794 27.622 322.95 27.804C323.114 27.9773 323.361 28.064 323.691 28.064C324.003 28.064 324.302 27.973 324.588 27.791C324.882 27.609 325.116 27.3793 325.29 27.102V22.136H326.746V29H325.485L325.394 28.116C325.151 28.454 324.835 28.714 324.445 28.896C324.055 29.078 323.652 29.169 323.236 29.169C322.577 29.169 322.083 28.9913 321.754 28.636C321.424 28.2807 321.26 27.7737 321.26 27.115V22.136H322.716V26.933ZM331.797 18.769C332.075 18.769 332.3 18.86 332.473 19.042C332.655 19.2153 332.746 19.432 332.746 19.692C332.746 19.952 332.655 20.1687 332.473 20.342C332.3 20.5153 332.075 20.602 331.797 20.602C331.511 20.602 331.282 20.5153 331.108 20.342C330.935 20.1687 330.848 19.952 330.848 19.692C330.848 19.4233 330.935 19.2023 331.108 19.029C331.29 18.8557 331.52 18.769 331.797 18.769ZM332.798 27.934H334.67V29H329.301V27.934H331.342V23.202H329.366V22.136H332.798V27.934ZM342.335 19.38V29H341.048L340.944 28.155C340.719 28.4843 340.442 28.7357 340.112 28.909C339.783 29.0823 339.419 29.169 339.02 29.169C338.162 29.169 337.517 28.8483 337.083 28.207C336.65 27.5657 336.433 26.686 336.433 25.568C336.433 24.866 336.542 24.242 336.758 23.696C336.984 23.15 337.3 22.7253 337.707 22.422C338.115 22.11 338.596 21.954 339.15 21.954C339.852 21.954 340.429 22.2053 340.879 22.708V19.211L342.335 19.38ZM339.527 23.072C339.025 23.072 338.639 23.28 338.37 23.696C338.11 24.1033 337.98 24.7273 337.98 25.568C337.98 27.232 338.457 28.064 339.41 28.064C339.982 28.064 340.472 27.7347 340.879 27.076V23.839C340.524 23.3277 340.073 23.072 339.527 23.072Z" fill="white"/>
<path d="M473 47L473 44C473 43.4477 472.552 43 472 43L176 43C175.448 43 175 43.4477 175 44L175 47" stroke="#BF1722" stroke-width="2" stroke-linecap="round"/>
<path d="M467 123L467 180" stroke="#BF1722" stroke-width="2"/>
<rect x="443" y="162" width="48" height="20" rx="10" fill="#F7F7F7"/>
<path d="M458.3 174.856V176H452.879V174.856H455.063V168.525L453.087 169.734L452.463 168.72L455.219 167.03H456.506V174.856H458.3ZM462.741 166.848C463.33 166.848 463.837 166.961 464.262 167.186C464.695 167.411 465.025 167.715 465.25 168.096C465.475 168.477 465.588 168.906 465.588 169.383C465.588 169.912 465.467 170.427 465.224 170.93C464.981 171.424 464.587 171.974 464.041 172.581C463.495 173.179 462.724 173.929 461.727 174.83H465.796L465.64 176H460.063V174.895C461.19 173.812 462.03 172.967 462.585 172.36C463.14 171.745 463.53 171.22 463.755 170.787C463.98 170.354 464.093 169.916 464.093 169.474C464.093 169.023 463.963 168.668 463.703 168.408C463.443 168.148 463.088 168.018 462.637 168.018C462.247 168.018 461.913 168.092 461.636 168.239C461.367 168.378 461.094 168.616 460.817 168.954L459.881 168.226C460.236 167.767 460.644 167.424 461.103 167.199C461.562 166.965 462.108 166.848 462.741 166.848ZM471.511 168.954C473.175 168.954 474.007 170.154 474.007 172.555C474.007 173.638 473.777 174.514 473.318 175.181C472.859 175.84 472.204 176.169 471.355 176.169C470.636 176.169 470.055 175.918 469.613 175.415V178.639L468.157 178.808V169.136H469.418L469.509 170.02C469.769 169.673 470.068 169.409 470.406 169.227C470.753 169.045 471.121 168.954 471.511 168.954ZM471.108 170.072C470.805 170.072 470.527 170.163 470.276 170.345C470.025 170.527 469.804 170.765 469.613 171.06V174.271C469.951 174.782 470.402 175.038 470.965 175.038C471.468 175.038 471.845 174.839 472.096 174.44C472.347 174.041 472.473 173.417 472.473 172.568C472.473 171.693 472.36 171.06 472.135 170.67C471.91 170.271 471.567 170.072 471.108 170.072ZM475.354 176L477.824 172.386L475.627 169.136H477.304L478.708 171.554L480.112 169.136H481.711L479.566 172.321L482.036 176H480.333L478.643 173.192L476.966 176H475.354Z" fill="#BF1722"/>
<path d="M461 118L461 121C461 121.552 461.448 122 462 122L472 122C472.552 122 473 121.552 473 121L473 118" stroke="#BF1722" stroke-width="2" stroke-linecap="round"/>
</svg>
