<svg width="312" height="200" viewBox="0 0 312 200" fill="none" xmlns="http://www.w3.org/2000/svg">
<g filter="url(#filter0_i_4885_110004)">
<rect width="312" height="200" fill="#F7F7F7"/>
<rect x="0.5" y="0.5" width="311" height="199" stroke="#EEEEEE"/>
<rect width="264" height="144" transform="translate(24 28)" fill="white"/>
<rect x="82.627" y="149" width="32" height="32" transform="rotate(45 82.627 149)" fill="white"/>
<rect x="24" y="44" width="4" height="112" fill="#00739A"/>
<path d="M53.696 51.928L52.368 53.464C51.776 52.92 50.944 52.52 49.92 52.52C48.176 52.52 46.784 54.024 46.784 55.88C46.784 57.72 48.176 59.224 50.048 59.224C50.928 59.224 51.808 58.888 52.384 58.296L53.696 59.768C52.8 60.76 51.568 61.208 49.92 61.208C46.928 61.208 44.64 58.808 44.64 55.88C44.64 52.92 47.008 50.536 49.904 50.536C51.632 50.536 52.848 51.064 53.696 51.928ZM58.0636 59.304L58.2716 61.016C57.9836 61.112 57.6156 61.176 57.3276 61.176C56.2236 61.176 55.1036 60.472 55.1036 58.52V49.992H57.0556V58.568C57.0556 59.16 57.3916 59.384 57.7436 59.384C57.8396 59.384 57.9676 59.352 58.0636 59.304ZM63.0685 61.208C61.0525 61.208 59.4045 59.56 59.4045 57.16C59.4045 54.856 60.9565 53.128 63.0685 53.128C64.1085 53.128 64.9085 53.592 65.4205 54.344V53.336H67.3725V61H65.4205V59.912C64.9085 60.696 64.1085 61.208 63.0685 61.208ZM63.3885 59.384C64.5725 59.384 65.4205 58.392 65.4205 57.16C65.4205 55.928 64.5725 54.952 63.3885 54.952C62.2045 54.952 61.3565 55.928 61.3565 57.16C61.3565 58.392 62.2045 59.384 63.3885 59.384ZM71.8931 61.208C70.6611 61.208 69.6531 60.888 68.9011 60.472L69.5251 58.968C70.4051 59.384 71.1411 59.608 71.9891 59.608C72.8531 59.608 73.2531 59.304 73.2531 58.856C73.2531 57.48 69.1251 58.296 69.1251 55.4C69.1251 54.248 70.1491 53.128 72.1171 53.128C73.1891 53.128 74.0051 53.352 74.9811 53.816L74.2611 55.272C73.7171 54.968 72.9011 54.728 72.2771 54.728C71.5411 54.728 71.0931 54.968 71.0931 55.384C71.0931 56.792 75.1891 55.912 75.1891 58.824C75.1891 60.152 74.0051 61.208 71.8931 61.208ZM79.1431 61.208C77.9111 61.208 76.9031 60.888 76.1511 60.472L76.7751 58.968C77.6551 59.384 78.3911 59.608 79.2391 59.608C80.1031 59.608 80.5031 59.304 80.5031 58.856C80.5031 57.48 76.3751 58.296 76.3751 55.4C76.3751 54.248 77.3991 53.128 79.3671 53.128C80.4391 53.128 81.2551 53.352 82.2311 53.816L81.5111 55.272C80.9671 54.968 80.1511 54.728 79.5271 54.728C78.7911 54.728 78.3431 54.968 78.3431 55.384C78.3431 56.792 82.4391 55.912 82.4391 58.824C82.4391 60.152 81.2551 61.208 79.1431 61.208ZM85.0171 52.312C84.3771 52.312 83.8811 51.8 83.8811 51.16C83.8811 50.536 84.3771 50.024 85.0171 50.024C85.6411 50.024 86.1691 50.536 86.1691 51.16C86.1691 51.8 85.6411 52.312 85.0171 52.312ZM85.9931 61H84.0411V53.336H85.9931V61ZM93.5898 55.656C93.0938 55.192 92.5338 54.952 91.7658 54.952C90.4858 54.952 89.6378 55.928 89.6378 57.16C89.6378 58.392 90.5018 59.384 91.7658 59.384C92.5338 59.384 93.1578 59.112 93.6538 58.632L94.6458 60.072C94.0378 60.744 92.9178 61.208 91.7178 61.208C89.4298 61.208 87.6858 59.4 87.6858 57.16C87.6858 54.936 89.4457 53.128 91.6858 53.128C92.9818 53.128 94.0218 53.56 94.7098 54.264L93.5898 55.656ZM106.568 52.616H103.528V61H101.512V52.616H98.4721V50.744H106.568V52.616ZM107.307 61V53.336H109.259V54.472C109.627 53.656 110.283 53.128 111.147 53.128C111.659 53.128 112.075 53.256 112.363 53.496L111.563 55.336C111.307 55.144 110.923 55.016 110.539 55.016C109.771 55.016 109.259 55.672 109.259 56.712V61H107.307ZM116.225 61.208C114.209 61.208 112.561 59.56 112.561 57.16C112.561 54.856 114.113 53.128 116.225 53.128C117.265 53.128 118.065 53.592 118.577 54.344V53.336H120.529V61H118.577V59.912C118.065 60.696 117.265 61.208 116.225 61.208ZM116.545 59.384C117.729 59.384 118.577 58.392 118.577 57.16C118.577 55.928 117.729 54.952 116.545 54.952C115.361 54.952 114.513 55.928 114.513 57.16C114.513 58.392 115.361 59.384 116.545 59.384ZM125.865 61.208C123.849 61.208 122.201 59.56 122.201 57.16C122.201 54.856 123.753 53.128 125.865 53.128C126.905 53.128 127.705 53.592 128.217 54.344V49.992H130.169V61H128.217V59.912C127.705 60.696 126.905 61.208 125.865 61.208ZM126.185 59.384C127.369 59.384 128.217 58.392 128.217 57.16C128.217 55.928 127.369 54.952 126.185 54.952C125.001 54.952 124.153 55.928 124.153 57.16C124.153 58.392 125.001 59.384 126.185 59.384ZM133.314 52.312C132.674 52.312 132.178 51.8 132.178 51.16C132.178 50.536 132.674 50.024 133.314 50.024C133.938 50.024 134.466 50.536 134.466 51.16C134.466 51.8 133.938 52.312 133.314 52.312ZM134.29 61H132.338V53.336H134.29V61ZM135.695 55.064V53.336H137.039V51.352H139.007V53.336H141.071V55.064H139.023V58.328C139.023 59.048 139.311 59.384 139.887 59.384C140.255 59.384 140.607 59.224 140.799 59L141.663 60.456C141.247 60.872 140.527 61.208 139.583 61.208C138.031 61.208 137.039 60.248 137.039 58.376V55.064H135.695ZM143.939 52.312C143.299 52.312 142.803 51.8 142.803 51.16C142.803 50.536 143.299 50.024 143.939 50.024C144.563 50.024 145.091 50.536 145.091 51.16C145.091 51.8 144.563 52.312 143.939 52.312ZM144.915 61H142.963V53.336H144.915V61ZM150.592 61.208C148.368 61.208 146.608 59.4 146.608 57.16C146.608 54.936 148.368 53.128 150.592 53.128C152.816 53.128 154.576 54.936 154.576 57.16C154.576 59.4 152.816 61.208 150.592 61.208ZM150.592 59.384C151.776 59.384 152.624 58.392 152.624 57.16C152.624 55.928 151.776 54.952 150.592 54.952C149.408 54.952 148.56 55.928 148.56 57.16C148.56 58.392 149.408 59.384 150.592 59.384ZM156.26 61V53.336H158.212V54.424C158.612 53.608 159.38 53.128 160.388 53.128C162.148 53.128 163.284 54.36 163.284 56.36V61H161.332V56.648C161.332 55.608 160.74 54.952 159.78 54.952C158.82 54.952 158.212 55.608 158.212 56.648V61H156.26ZM168.569 61.208C166.553 61.208 164.905 59.56 164.905 57.16C164.905 54.856 166.457 53.128 168.569 53.128C169.609 53.128 170.409 53.592 170.921 54.344V53.336H172.873V61H170.921V59.912C170.409 60.696 169.609 61.208 168.569 61.208ZM168.889 59.384C170.073 59.384 170.921 58.392 170.921 57.16C170.921 55.928 170.073 54.952 168.889 54.952C167.705 54.952 166.857 55.928 166.857 57.16C166.857 58.392 167.705 59.384 168.889 59.384ZM178.001 59.304L178.209 61.016C177.921 61.112 177.553 61.176 177.265 61.176C176.161 61.176 175.041 60.472 175.041 58.52V49.992H176.993V58.568C176.993 59.16 177.329 59.384 177.681 59.384C177.777 59.384 177.905 59.352 178.001 59.304ZM190.236 61V56.696H185.34V61H183.34V50.744H185.34V54.824H190.236V50.744H192.236V61H190.236ZM200.014 59.064L196.574 53.88V61H194.574V50.744H196.878L200.126 55.768L203.406 50.744H205.438V61H203.438V53.96L200.014 59.064ZM212.577 50.536C215.505 50.536 217.889 52.936 217.889 55.896C217.889 58.824 215.505 61.208 212.577 61.208C209.649 61.208 207.265 58.808 207.265 55.88C207.265 52.92 209.649 50.536 212.577 50.536ZM212.577 59.224C214.337 59.224 215.761 57.72 215.761 55.896C215.761 54.04 214.337 52.52 212.577 52.52C210.817 52.52 209.409 54.024 209.409 55.88C209.409 57.72 210.817 59.224 212.577 59.224ZM51.936 85L47.152 78.056V85H45.152V74.744H47.296L52.096 81.768V74.744H54.096V85H51.936ZM59.9384 85.208C57.5544 85.208 55.8264 83.4 55.8264 81.16C55.8264 78.936 57.4744 77.128 59.6824 77.128C61.8744 77.128 63.5544 78.808 63.5544 81.016C63.5544 81.272 63.5384 81.576 63.5064 81.704H57.8264C58.0344 82.76 58.8344 83.496 60.0024 83.496C60.7864 83.496 61.4424 83.16 61.8904 82.696L62.8984 84.04C62.3064 84.696 61.2184 85.208 59.9384 85.208ZM59.7144 78.776C58.7864 78.776 58.1144 79.416 57.8744 80.344H61.5384C61.2984 79.32 60.6104 78.776 59.7144 78.776ZM64.3353 79.064V77.336H65.6793V75.352H67.6473V77.336H69.7113V79.064H67.6633V82.328C67.6633 83.048 67.9513 83.384 68.5273 83.384C68.8953 83.384 69.2473 83.224 69.4393 83L70.3033 84.456C69.8873 84.872 69.1673 85.208 68.2233 85.208C66.6713 85.208 65.6793 84.248 65.6793 82.376V79.064H64.3353ZM75.3956 85H73.1876L70.8196 77.336H72.9156L74.3396 82.856L75.8916 77.336H78.0036L79.5876 82.888L81.0436 77.336H83.1396L80.7716 85H78.3396L76.8516 79.8L75.3956 85ZM87.6541 85.208C85.4301 85.208 83.6701 83.4 83.6701 81.16C83.6701 78.936 85.4301 77.128 87.6541 77.128C89.8781 77.128 91.6381 78.936 91.6381 81.16C91.6381 83.4 89.8781 85.208 87.6541 85.208ZM87.6541 83.384C88.8381 83.384 89.6861 82.392 89.6861 81.16C89.6861 79.928 88.8381 78.952 87.6541 78.952C86.4701 78.952 85.6221 79.928 85.6221 81.16C85.6221 82.392 86.4701 83.384 87.6541 83.384ZM93.3224 85V77.336H95.2744V78.472C95.6424 77.656 96.2984 77.128 97.1624 77.128C97.6744 77.128 98.0904 77.256 98.3784 77.496L97.5784 79.336C97.3224 79.144 96.9384 79.016 96.5544 79.016C95.7864 79.016 95.2744 79.672 95.2744 80.712V85H93.3224ZM101.665 85H99.713V73.992H101.665V80.504L104.705 77.336H107.121L103.761 80.824L107.457 85H104.961L101.665 81.208V85ZM118.749 85L113.965 78.056V85H111.965V74.744H114.109L118.909 81.768V74.744H120.909V85H118.749ZM126.623 85.208C124.399 85.208 122.639 83.4 122.639 81.16C122.639 78.936 124.399 77.128 126.623 77.128C128.847 77.128 130.607 78.936 130.607 81.16C130.607 83.4 128.847 85.208 126.623 85.208ZM126.623 83.384C127.807 83.384 128.655 82.392 128.655 81.16C128.655 79.928 127.807 78.952 126.623 78.952C125.439 78.952 124.591 79.928 124.591 81.16C124.591 82.392 125.439 83.384 126.623 83.384ZM132.291 85V77.336H134.243V78.424C134.643 77.608 135.411 77.128 136.419 77.128C138.179 77.128 139.315 78.36 139.315 80.36V85H137.363V80.648C137.363 79.608 136.771 78.952 135.811 78.952C134.851 78.952 134.243 79.608 134.243 80.648V85H132.291ZM144.934 85V74.76H148.358C151.734 74.76 154.15 76.888 154.15 79.88C154.15 82.872 151.766 85 148.422 85H144.934ZM148.342 76.632H146.998V83.112H148.358C150.55 83.112 152.006 81.832 152.006 79.88C152.006 77.912 150.55 76.632 148.342 76.632ZM157.741 77.336V81.48C157.741 82.6 158.381 83.352 159.357 83.352C160.333 83.352 160.989 82.6 160.989 81.48V77.336H162.957V81.624C162.957 83.768 161.517 85.192 159.357 85.192C157.197 85.192 155.789 83.768 155.789 81.624V77.336H157.741ZM165.026 85V77.336H166.978V78.472C167.346 77.656 168.002 77.128 168.866 77.128C169.378 77.128 169.794 77.256 170.082 77.496L169.282 79.336C169.026 79.144 168.641 79.016 168.258 79.016C167.49 79.016 166.978 79.672 166.978 80.712V85H165.026ZM173.944 85.208C171.928 85.208 170.28 83.56 170.28 81.16C170.28 78.856 171.832 77.128 173.944 77.128C174.984 77.128 175.784 77.592 176.296 78.344V77.336H178.248V85H176.296V83.912C175.784 84.696 174.984 85.208 173.944 85.208ZM174.264 83.384C175.448 83.384 176.296 82.392 176.296 81.16C176.296 79.928 175.448 78.952 174.264 78.952C173.08 78.952 172.232 79.928 172.232 81.16C172.232 82.392 173.08 83.384 174.264 83.384ZM179.632 79.064V77.336H180.976V75.352H182.944V77.336H185.008V79.064H182.96V82.328C182.96 83.048 183.248 83.384 183.824 83.384C184.192 83.384 184.544 83.224 184.736 83L185.6 84.456C185.184 84.872 184.464 85.208 183.52 85.208C181.968 85.208 180.976 84.248 180.976 82.376V79.064H179.632ZM187.877 76.312C187.237 76.312 186.741 75.8 186.741 75.16C186.741 74.536 187.237 74.024 187.877 74.024C188.501 74.024 189.029 74.536 189.029 75.16C189.029 75.8 188.501 76.312 187.877 76.312ZM188.853 85H186.901V77.336H188.853V85ZM194.529 85.208C192.305 85.208 190.545 83.4 190.545 81.16C190.545 78.936 192.305 77.128 194.529 77.128C196.753 77.128 198.513 78.936 198.513 81.16C198.513 83.4 196.753 85.208 194.529 85.208ZM194.529 83.384C195.713 83.384 196.561 82.392 196.561 81.16C196.561 79.928 195.713 78.952 194.529 78.952C193.345 78.952 192.497 79.928 192.497 81.16C192.497 82.392 193.345 83.384 194.529 83.384ZM200.197 85V77.336H202.149V78.424C202.549 77.608 203.317 77.128 204.325 77.128C206.085 77.128 207.221 78.36 207.221 80.36V85H205.269V80.648C205.269 79.608 204.677 78.952 203.717 78.952C202.757 78.952 202.149 79.608 202.149 80.648V85H200.197ZM212.506 85.208C210.49 85.208 208.842 83.56 208.842 81.16C208.842 78.856 210.394 77.128 212.506 77.128C213.546 77.128 214.346 77.592 214.858 78.344V77.336H216.81V85H214.858V83.912C214.346 84.696 213.546 85.208 212.506 85.208ZM212.826 83.384C214.01 83.384 214.858 82.392 214.858 81.16C214.858 79.928 214.01 78.952 212.826 78.952C211.642 78.952 210.794 79.928 210.794 81.16C210.794 82.392 211.642 83.384 212.826 83.384ZM221.939 83.304L222.147 85.016C221.859 85.112 221.491 85.176 221.203 85.176C220.099 85.176 218.979 84.472 218.979 82.52V73.992H220.931V82.568C220.931 83.16 221.267 83.384 221.619 83.384C221.715 83.384 221.843 83.352 221.939 83.304ZM52.576 109L51.68 106.696H47.2L46.304 109H44.208L48.32 98.744H50.672L54.8 109H52.576ZM47.872 104.92H51.008L49.44 100.872L47.872 104.92ZM58.9748 109.208C56.9588 109.208 55.3108 107.56 55.3108 105.16C55.3108 102.856 56.8628 101.128 58.9748 101.128C60.0148 101.128 60.8148 101.592 61.3268 102.344V97.992H63.2788V109H61.3268V107.912C60.8148 108.696 60.0148 109.208 58.9748 109.208ZM59.2948 107.384C60.4788 107.384 61.3268 106.392 61.3268 105.16C61.3268 103.928 60.4788 102.952 59.2948 102.952C58.1108 102.952 57.2628 103.928 57.2628 105.16C57.2628 106.392 58.1108 107.384 59.2948 107.384ZM69.8794 109H67.3354L64.5674 101.336H66.7114L68.6634 107.256L70.6474 101.336H72.6474L69.8794 109ZM76.7404 109.208C74.7244 109.208 73.0764 107.56 73.0764 105.16C73.0764 102.856 74.6284 101.128 76.7404 101.128C77.7804 101.128 78.5804 101.592 79.0924 102.344V101.336H81.0444V109H79.0924V107.912C78.5804 108.696 77.7804 109.208 76.7404 109.208ZM77.0604 107.384C78.2444 107.384 79.0924 106.392 79.0924 105.16C79.0924 103.928 78.2444 102.952 77.0604 102.952C75.8764 102.952 75.0284 103.928 75.0284 105.16C75.0284 106.392 75.8764 107.384 77.0604 107.384ZM83.213 109V101.336H85.165V102.424C85.565 101.608 86.333 101.128 87.341 101.128C89.101 101.128 90.237 102.36 90.237 104.36V109H88.285V104.648C88.285 103.608 87.693 102.952 86.733 102.952C85.773 102.952 85.165 103.608 85.165 104.648V109H83.213ZM91.5696 103.064V101.336H92.9136V99.352H94.8816V101.336H96.9456V103.064H94.8976V106.328C94.8976 107.048 95.1856 107.384 95.7616 107.384C96.1296 107.384 96.4816 107.224 96.6736 107L97.5376 108.456C97.1216 108.872 96.4016 109.208 95.4576 109.208C93.9056 109.208 92.9136 108.248 92.9136 106.376V103.064H91.5696ZM101.631 109.208C99.615 109.208 97.967 107.56 97.967 105.16C97.967 102.856 99.519 101.128 101.631 101.128C102.671 101.128 103.471 101.592 103.983 102.344V101.336H105.935V109H103.983V107.912C103.471 108.696 102.671 109.208 101.631 109.208ZM101.951 107.384C103.135 107.384 103.983 106.392 103.983 105.16C103.983 103.928 103.135 102.952 101.951 102.952C100.767 102.952 99.919 103.928 99.919 105.16C99.919 106.392 100.767 107.384 101.951 107.384ZM109.16 109.816C109.544 110.104 110.296 110.568 111.384 110.568C112.696 110.568 113.512 109.864 113.512 108.552V107.64C113 108.408 112.216 108.888 111.176 108.888C109.208 108.888 107.608 107.304 107.608 105C107.608 102.776 109.208 101.176 111.176 101.176C112.216 101.176 113 101.592 113.512 102.312V101.336H115.464V108.456C115.464 111.496 113.384 112.344 111.496 112.344C110.088 112.344 108.904 111.992 108.168 111.336L109.16 109.816ZM111.544 107.048C112.68 107.048 113.512 106.136 113.512 105C113.512 103.864 112.68 102.952 111.544 102.952C110.408 102.952 109.56 103.864 109.56 105C109.56 106.152 110.408 107.048 111.544 107.048ZM121.251 109.208C118.867 109.208 117.139 107.4 117.139 105.16C117.139 102.936 118.787 101.128 120.995 101.128C123.187 101.128 124.867 102.808 124.867 105.016C124.867 105.272 124.851 105.576 124.819 105.704H119.139C119.347 106.76 120.147 107.496 121.315 107.496C122.099 107.496 122.755 107.16 123.203 106.696L124.211 108.04C123.619 108.696 122.531 109.208 121.251 109.208ZM121.027 102.776C120.099 102.776 119.427 103.416 119.187 104.344H122.851C122.611 103.32 121.923 102.776 121.027 102.776ZM129.934 109V98.744H133.598C136.078 98.744 137.71 100.088 137.71 102.136C137.71 104.2 136.062 105.56 133.566 105.56H131.934V109H129.934ZM133.758 100.52H131.934V103.784H133.758C134.862 103.784 135.598 103.128 135.598 102.136C135.598 101.16 134.862 100.52 133.758 100.52ZM142.236 107.304L142.444 109.016C142.156 109.112 141.788 109.176 141.5 109.176C140.396 109.176 139.276 108.472 139.276 106.52V97.992H141.228V106.568C141.228 107.16 141.564 107.384 141.916 107.384C142.012 107.384 142.14 107.352 142.236 107.304ZM147.24 109.208C145.224 109.208 143.576 107.56 143.576 105.16C143.576 102.856 145.128 101.128 147.24 101.128C148.28 101.128 149.08 101.592 149.592 102.344V101.336H151.544V109H149.592V107.912C149.08 108.696 148.28 109.208 147.24 109.208ZM147.56 107.384C148.744 107.384 149.592 106.392 149.592 105.16C149.592 103.928 148.744 102.952 147.56 102.952C146.376 102.952 145.528 103.928 145.528 105.16C145.528 106.392 146.376 107.384 147.56 107.384ZM153.713 109V101.336H155.665V102.424C156.065 101.608 156.833 101.128 157.841 101.128C159.601 101.128 160.737 102.36 160.737 104.36V109H158.785V104.648C158.785 103.608 158.193 102.952 157.233 102.952C156.273 102.952 155.665 103.608 155.665 104.648V109H153.713Z" fill="#333333"/>
<path fill-rule="evenodd" clip-rule="evenodd" d="M257.209 83.4457L264.524 76.1988C264.789 75.9355 265.211 75.9355 265.476 76.1988L272.791 83.4457C273.063 83.7151 273.071 84.16 272.808 84.4393C272.803 84.4451 272.797 84.4508 272.791 84.4565C272.508 84.7385 272.057 84.7385 271.773 84.4565L265 77.7278V77.7278L258.227 84.4565C257.943 84.7385 257.492 84.7385 257.209 84.4565C256.937 84.1867 256.93 83.7418 257.192 83.4629C257.198 83.457 257.203 83.4513 257.209 83.4457Z" fill="#00739A"/>
<mask id="mask0_4885_110004" style="mask-type:luminance" maskUnits="userSpaceOnUse" x="257" y="76" width="16" height="9">
<path fill-rule="evenodd" clip-rule="evenodd" d="M257.209 83.4457L264.524 76.1988C264.789 75.9355 265.211 75.9355 265.476 76.1988L272.791 83.4457C273.063 83.7151 273.071 84.16 272.808 84.4393C272.803 84.4451 272.797 84.4508 272.791 84.4565C272.508 84.7385 272.057 84.7385 271.773 84.4565L265 77.7278V77.7278L258.227 84.4565C257.943 84.7385 257.492 84.7385 257.209 84.4565C256.937 84.1867 256.93 83.7418 257.192 83.4629C257.198 83.457 257.203 83.4513 257.209 83.4457Z" fill="white"/>
</mask>
<g mask="url(#mask0_4885_110004)">
</g>
<path d="M48.968 131.488L46.1 127.036V133H45.02V125.308H46.256L49.016 129.628L51.8 125.308H52.904V133H51.824V127.144L48.968 131.488ZM54.9458 133V125.308H59.8298V126.328H56.0258V128.632H59.3498V129.652H56.0258V131.98H59.8298V133H54.9458ZM61.2973 133V125.32H63.6493C66.2053 125.32 67.9813 126.892 67.9813 129.16C67.9813 131.428 66.2533 133 63.7573 133H61.2973ZM63.6733 126.34H62.4013V131.98H63.6733C65.5813 131.98 66.8293 130.864 66.8293 129.16C66.8293 127.456 65.5813 126.34 63.6733 126.34ZM69.5942 133V125.308H70.6742V133H69.5942ZM78.9514 126.124L78.2314 126.964C77.7154 126.532 77.0674 126.232 76.2034 126.232C74.6674 126.232 73.4314 127.54 73.4314 129.16C73.4314 130.768 74.6674 132.076 76.2994 132.076C77.0434 132.076 77.7514 131.824 78.2434 131.368L78.9514 132.16C78.2434 132.856 77.3674 133.144 76.2274 133.144C73.9954 133.144 72.2794 131.356 72.2794 129.16C72.2794 126.952 74.0314 125.164 76.1914 125.164C77.4154 125.164 78.2794 125.512 78.9514 126.124ZM85.7557 133L84.9637 131.032H81.2917L80.4997 133H79.3597L82.5277 125.308H83.7997L86.9677 133H85.7557ZM81.6877 130.06H84.5677L83.1277 126.472L81.6877 130.06ZM88.1684 133V125.308H89.2484V131.98H93.2324V133H88.1684ZM94.738 131.632C95.17 131.632 95.482 131.944 95.482 132.352C95.482 132.592 95.41 132.796 95.266 133.048L94.414 134.536H93.79L94.498 133.012C94.198 132.904 94.006 132.688 94.006 132.352C94.006 131.932 94.342 131.632 94.738 131.632ZM99.6177 133V125.308H102.306C104.082 125.308 105.246 126.268 105.246 127.744C105.246 129.22 104.07 130.192 102.282 130.192H100.698V133H99.6177ZM102.402 126.28H100.698V129.22H102.402C103.422 129.22 104.118 128.632 104.118 127.744C104.118 126.856 103.422 126.28 102.402 126.28ZM112.107 133V129.616H107.823V133H106.743V125.308H107.823V128.596H112.107V125.308H113.187V133H112.107ZM120.783 133L119.991 131.032H116.319L115.527 133H114.387L117.555 125.308H118.827L121.995 133H120.783ZM116.715 130.06H119.595L118.155 126.472L116.715 130.06ZM123.196 133V125.308H125.884C127.576 125.308 128.692 126.22 128.692 127.624C128.692 128.716 128.008 129.52 126.904 129.82L128.824 133H127.564L125.776 129.952H124.276V133H123.196ZM125.98 126.28H124.276V128.98H125.98C126.928 128.98 127.552 128.44 127.552 127.624C127.552 126.808 126.928 126.28 125.98 126.28ZM134.374 131.488L131.506 127.036V133H130.426V125.308H131.662L134.422 129.628L137.206 125.308H138.31V133H137.23V127.144L134.374 131.488ZM145.908 133L145.116 131.032H141.444L140.652 133H139.512L142.68 125.308H143.952L147.12 133H145.908ZM141.84 130.06H144.72L143.28 126.472L141.84 130.06ZM154.151 126.124L153.431 126.964C152.915 126.532 152.267 126.232 151.403 126.232C149.867 126.232 148.631 127.54 148.631 129.16C148.631 130.768 149.867 132.076 151.499 132.076C152.243 132.076 152.951 131.824 153.443 131.368L154.151 132.16C153.443 132.856 152.567 133.144 151.427 133.144C149.195 133.144 147.479 131.356 147.479 129.16C147.479 126.952 149.231 125.164 151.391 125.164C152.615 125.164 153.479 125.512 154.151 126.124ZM157.355 133V130.408L154.487 125.308H155.711L157.919 129.268L160.139 125.308H161.303L158.447 130.408V133H157.355ZM162.215 131.632C162.647 131.632 162.959 131.944 162.959 132.352C162.959 132.592 162.887 132.796 162.743 133.048L161.891 134.536H161.267L161.975 133.012C161.675 132.904 161.483 132.688 161.483 132.352C161.483 131.932 161.819 131.632 162.215 131.632ZM167.094 133V125.32H169.446C172.002 125.32 173.778 126.892 173.778 129.16C173.778 131.428 172.05 133 169.554 133H167.094ZM169.47 126.34H168.198V131.98H169.47C171.378 131.98 172.626 130.864 172.626 129.16C172.626 127.456 171.378 126.34 169.47 126.34ZM175.391 133V125.308H180.275V126.328H176.471V128.632H179.795V129.652H176.471V131.98H180.275V133H175.391ZM187.047 133L182.787 127.072V133H181.707V125.308H182.883L187.143 131.272V125.308H188.223V133H187.047ZM195.279 126.328H192.843V133H191.751V126.328H189.315V125.308H195.279V126.328ZM201.139 133L200.347 131.032H196.675L195.883 133H194.743L197.911 125.308H199.183L202.351 133H201.139ZM197.071 130.06H199.951L198.511 126.472L197.071 130.06ZM203.551 133V125.308H204.631V131.98H208.615V133H203.551ZM210.121 131.632C210.553 131.632 210.865 131.944 210.865 132.352C210.865 132.592 210.793 132.796 210.649 133.048L209.797 134.536H209.173L209.881 133.012C209.581 132.904 209.389 132.688 209.389 132.352C209.389 131.932 209.725 131.632 210.121 131.632ZM45.416 143.308L47.804 149.8L50.204 143.308H51.332L48.404 151H47.132L44.204 143.308H45.416ZM52.5669 151V143.308H53.6469V151H52.5669ZM56.5001 151.012C56.1521 150.916 55.6961 150.688 55.1201 150.316L55.6361 149.38C56.3201 149.824 57.2321 150.112 58.0121 150.112C58.9481 150.112 59.6681 149.716 59.6681 148.924C59.6681 147.28 55.3721 148.06 55.3721 145.324C55.3721 144.016 56.5601 143.152 58.0961 143.152C59.0801 143.152 59.9081 143.404 60.5681 143.872L60.0281 144.76C59.5361 144.448 58.7921 144.172 58.0481 144.172C57.1481 144.172 56.5241 144.652 56.5241 145.3C56.5241 147.052 60.8081 146.284 60.8081 148.852C60.8081 150.388 59.5001 151.144 57.9401 151.144C57.3281 151.144 56.8481 151.096 56.5001 151.012ZM62.2934 151V143.308H63.3734V151H62.2934ZM68.9146 143.164C71.0866 143.164 72.8506 144.964 72.8506 147.172C72.8506 149.368 71.0866 151.144 68.9146 151.144C66.7426 151.144 64.9786 149.356 64.9786 147.16C64.9786 144.952 66.7426 143.164 68.9146 143.164ZM68.9146 150.076C70.4626 150.076 71.7106 148.768 71.7106 147.172C71.7106 145.552 70.4626 144.232 68.9146 144.232C67.3786 144.232 66.1306 145.54 66.1306 147.16C66.1306 148.768 67.3786 150.076 68.9146 150.076ZM79.7615 151L75.5015 145.072V151H74.4215V143.308H75.5975L79.8575 149.272V143.308H80.9375V151H79.7615ZM83.2419 149.632C83.6739 149.632 83.9859 149.944 83.9859 150.352C83.9859 150.592 83.9139 150.796 83.7699 151.048L82.9179 152.536H82.2939L83.0019 151.012C82.7019 150.904 82.5099 150.688 82.5099 150.352C82.5099 149.932 82.8459 149.632 83.2419 149.632ZM88.1216 151V143.308H89.2016V149.98H93.1856V151H88.1216ZM94.3911 151V143.308H95.4711V151H94.3911ZM97.5083 151V143.32H102.26V144.34H98.5883V146.752H101.78V147.772H98.5883V151H97.5083ZM103.708 151V143.308H108.592V144.328H104.788V146.632H108.112V147.652H104.788V149.98H108.592V151H103.708ZM110.359 149.632C110.791 149.632 111.103 149.944 111.103 150.352C111.103 150.592 111.031 150.796 110.887 151.048L110.035 152.536H109.411L110.119 151.012C109.819 150.904 109.627 150.688 109.627 150.352C109.627 149.932 109.963 149.632 110.359 149.632ZM115.239 151V143.32H117.591C120.147 143.32 121.923 144.892 121.923 147.16C121.923 149.428 120.195 151 117.699 151H115.239ZM117.615 144.34H116.343V149.98H117.615C119.523 149.98 120.771 148.864 120.771 147.16C120.771 145.456 119.523 144.34 117.615 144.34ZM123.536 151V143.308H124.616V151H123.536ZM127.469 151.012C127.121 150.916 126.665 150.688 126.089 150.316L126.605 149.38C127.289 149.824 128.201 150.112 128.981 150.112C129.917 150.112 130.637 149.716 130.637 148.924C130.637 147.28 126.341 148.06 126.341 145.324C126.341 144.016 127.529 143.152 129.065 143.152C130.049 143.152 130.877 143.404 131.537 143.872L130.997 144.76C130.505 144.448 129.761 144.172 129.017 144.172C128.117 144.172 127.493 144.652 127.493 145.3C127.493 147.052 131.777 146.284 131.777 148.852C131.777 150.388 130.469 151.144 128.909 151.144C128.297 151.144 127.817 151.096 127.469 151.012ZM138.701 151L137.909 149.032H134.237L133.445 151H132.305L135.473 143.308H136.745L139.913 151H138.701ZM134.633 148.06H137.513L136.073 144.472L134.633 148.06ZM141.114 151V143.32H144.162C145.506 143.32 146.538 144.196 146.538 145.384C146.538 146.296 145.89 146.824 145.374 147.028C146.142 147.256 146.802 147.868 146.802 148.876C146.802 150.016 145.854 151 144.354 151H141.114ZM144.042 144.28H142.194V146.62H144.054C144.834 146.62 145.422 146.116 145.422 145.456C145.422 144.796 144.822 144.28 144.042 144.28ZM144.234 147.532H142.194V150.028H144.222C145.038 150.028 145.674 149.488 145.674 148.78C145.674 148.072 145.05 147.532 144.234 147.532ZM148.286 151V143.308H149.366V151H148.286ZM151.403 151V143.308H152.483V149.98H156.467V151H151.403ZM157.672 151V143.308H158.752V151H157.672ZM165.842 144.328H163.406V151H162.314V144.328H159.878V143.308H165.842V144.328ZM168.933 151V148.408L166.065 143.308H167.289L169.497 147.268L171.717 143.308H172.881L170.025 148.408V151H168.933Z" fill="#666666"/>
</g>
<defs>
<filter id="filter0_i_4885_110004" x="0" y="0" width="312" height="200" filterUnits="userSpaceOnUse" color-interpolation-filters="sRGB">
<feFlood flood-opacity="0" result="BackgroundImageFix"/>
<feBlend mode="normal" in="SourceGraphic" in2="BackgroundImageFix" result="shape"/>
<feColorMatrix in="SourceAlpha" type="matrix" values="0 0 0 0 0 0 0 0 0 0 0 0 0 0 0 0 0 0 127 0" result="hardAlpha"/>
<feOffset dy="4"/>
<feComposite in2="hardAlpha" operator="arithmetic" k2="-1" k3="1"/>
<feColorMatrix type="matrix" values="0 0 0 0 0.74902 0 0 0 0 0.0901961 0 0 0 0 0.133333 0 0 0 1 0"/>
<feBlend mode="normal" in2="shape" result="effect1_innerShadow_4885_110004"/>
</filter>
</defs>
</svg>
