<svg width="648" height="244" viewBox="0 0 648 244" fill="none" xmlns="http://www.w3.org/2000/svg">
<rect x="0.5" y="0.5" width="647" height="243" fill="#F7F7F7"/>
<rect x="0.5" y="0.5" width="647" height="243" stroke="#EEEEEE"/>
<path d="M53.27 50.568H49.85V60H47.582V50.568H44.162V48.462H53.27V50.568ZM55.779 50.226C55.059 50.226 54.501 49.65 54.501 48.93C54.501 48.228 55.059 47.652 55.779 47.652C56.481 47.652 57.075 48.228 57.075 48.93C57.075 49.65 56.481 50.226 55.779 50.226ZM56.877 60H54.681V51.378H56.877V60ZM58.4572 53.322V51.378H59.9692V49.146H62.1832V51.378H64.5052V53.322H62.2012V56.994C62.2012 57.804 62.5252 58.182 63.1732 58.182C63.5872 58.182 63.9832 58.002 64.1992 57.75L65.1712 59.388C64.7032 59.856 63.8932 60.234 62.8312 60.234C61.0852 60.234 59.9692 59.154 59.9692 57.048V53.322H58.4572ZM69.9642 58.092L70.1982 60.018C69.8742 60.126 69.4602 60.198 69.1362 60.198C67.8942 60.198 66.6342 59.406 66.6342 57.21V47.616H68.8302V57.264C68.8302 57.93 69.2082 58.182 69.6042 58.182C69.7122 58.182 69.8562 58.146 69.9642 58.092ZM76.0986 60.234C73.4166 60.234 71.4726 58.2 71.4726 55.68C71.4726 53.178 73.3266 51.144 75.8106 51.144C78.2766 51.144 80.1666 53.034 80.1666 55.518C80.1666 55.806 80.1486 56.148 80.1126 56.292H73.7226C73.9566 57.48 74.8566 58.308 76.1706 58.308C77.0526 58.308 77.7906 57.93 78.2946 57.408L79.4286 58.92C78.7626 59.658 77.5386 60.234 76.0986 60.234ZM75.8466 52.998C74.8026 52.998 74.0466 53.718 73.7766 54.762H77.8986C77.6286 53.61 76.8546 52.998 75.8466 52.998Z" fill="#333333"/>
<mask id="path-3-inside-1_4429_75606" fill="white">
<path d="M44 90C44 84.4772 48.4772 80 54 80H594C599.523 80 604 84.4772 604 90V90C604 95.5228 599.523 100 594 100H54C48.4771 100 44 95.5228 44 90V90Z"/>
</mask>
<path d="M44 90C44 84.4772 48.4772 80 54 80H594C599.523 80 604 84.4772 604 90V90C604 95.5228 599.523 100 594 100H54C48.4771 100 44 95.5228 44 90V90Z" fill="#F7F7F7"/>
<path d="M54 82H594V78H54V82ZM594 98H54V102H594V98ZM54 98C49.5817 98 46 94.4183 46 90H42C42 96.6274 47.3726 102 54 102V98ZM602 90C602 94.4183 598.418 98 594 98V102C600.627 102 606 96.6274 606 90H602ZM594 82C598.418 82 602 85.5817 602 90H606C606 83.3726 600.627 78 594 78V82ZM54 78C47.3726 78 42 83.3726 42 90H46C46 85.5817 49.5817 82 54 82V78Z" fill="#878787" mask="url(#path-3-inside-1_4429_75606)"/>
<path d="M44 90C44 84.4772 48.4772 80 54 80H314C319.523 80 324 84.4772 324 90V90C324 95.5228 319.523 100 314 100H54C48.4771 100 44 95.5228 44 90V90Z" fill="#1A3673"/>
<path d="M46.384 124.84C45.904 124.728 45.296 124.408 44.512 123.912L45.344 122.248C46.208 122.792 47.488 123.16 48.48 123.16C49.488 123.16 50.256 122.776 50.256 121.96C50.256 120.104 44.848 121.272 44.848 117.72C44.848 116.088 46.128 115.032 47.808 114.76V113.304H49.456V114.744C50.464 114.856 51.376 115.192 52.144 115.768L51.184 117.32C50.512 116.872 49.488 116.584 48.592 116.584C47.648 116.584 46.992 117 46.992 117.672C46.992 119.464 52.384 118.616 52.384 121.864C52.384 123.608 51.12 124.632 49.456 124.936V126.44H47.808V125.016C47.216 125 46.736 124.936 46.384 124.84ZM56.8746 123.384C58.0586 123.384 58.7466 122.664 58.7466 121.704C58.7466 120.76 58.0906 120.008 56.8746 120.008C56.0106 120.008 55.4506 120.232 54.9066 120.552L54.0266 119.928L54.8426 114.744H60.1066V116.472H56.4426L56.0906 118.552C56.3946 118.408 56.8906 118.344 57.2906 118.344C59.4346 118.344 60.6986 119.768 60.6986 121.736C60.6986 123.736 59.2586 125.224 56.9066 125.224C55.2746 125.224 54.1066 124.536 53.4026 123.48L54.8266 122.2C55.4026 123.032 56.0746 123.384 56.8746 123.384ZM63.4703 122.664C64.1583 122.664 64.7023 123.192 64.7023 123.88C64.7023 124.2 64.5903 124.584 64.3183 125.016L63.1663 126.936H62.0943L63.0383 124.984C62.5583 124.792 62.2223 124.424 62.2223 123.896C62.2223 123.192 62.7663 122.664 63.4703 122.664ZM69.1085 125H67.1565V117.064L65.5405 118.648L64.3725 117.352L67.1245 114.744H69.1085V125ZM73.8696 125H71.7736L75.6136 116.472H71.0536V114.744H77.6936V116.296L73.8696 125ZM81.859 123.384C83.043 123.384 83.731 122.664 83.731 121.704C83.731 120.76 83.075 120.008 81.859 120.008C80.995 120.008 80.435 120.232 79.891 120.552L79.011 119.928L79.827 114.744H85.091V116.472H81.427L81.075 118.552C81.379 118.408 81.875 118.344 82.275 118.344C84.419 118.344 85.683 119.768 85.683 121.736C85.683 123.736 84.243 125.224 81.891 125.224C80.259 125.224 79.091 124.536 78.387 123.48L79.811 122.2C80.387 123.032 81.059 123.384 81.859 123.384ZM88.4226 125.192C87.7346 125.192 87.1586 124.632 87.1586 123.928C87.1586 123.224 87.7346 122.648 88.4226 122.648C89.1266 122.648 89.7026 123.224 89.7026 123.928C89.7026 124.632 89.1266 125.192 88.4226 125.192ZM94.9243 125.208C92.5723 125.208 90.8603 122.952 90.8603 119.864C90.8603 116.792 92.5403 114.536 94.8283 114.536C97.2123 114.536 98.9083 116.792 98.9083 119.864C98.9403 122.952 97.2443 125.208 94.9243 125.208ZM94.8923 123.384C96.1243 123.384 96.9563 121.96 96.9563 119.864C96.9563 117.8 96.1083 116.36 94.8443 116.36C93.6443 116.36 92.8123 117.784 92.8123 119.864C92.8123 121.96 93.6603 123.384 94.8923 123.384ZM104.377 125.208C102.025 125.208 100.313 122.952 100.313 119.864C100.313 116.792 101.993 114.536 104.281 114.536C106.665 114.536 108.361 116.792 108.361 119.864C108.393 122.952 106.697 125.208 104.377 125.208ZM104.345 123.384C105.577 123.384 106.409 121.96 106.409 119.864C106.409 117.8 105.561 116.36 104.297 116.36C103.097 116.36 102.265 117.784 102.265 119.864C102.265 121.96 103.113 123.384 104.345 123.384Z" fill="#333333"/>
<path d="M530.152 124.824C529.688 124.712 529.08 124.408 528.312 123.912L528.936 122.696C529.848 123.288 531.128 123.656 532.152 123.656C533.4 123.656 534.36 123.112 534.36 122.056C534.36 119.784 528.632 121.08 528.632 117.608C528.632 116.04 529.896 114.968 531.64 114.744V113.384H532.872V114.728C533.928 114.808 534.824 115.112 535.576 115.656L534.872 116.792C534.2 116.344 533.208 116.072 532.216 116.072C531 116.072 530.168 116.696 530.168 117.56C530.168 119.752 535.896 118.696 535.896 121.96C535.896 123.736 534.568 124.728 532.872 124.968V126.36H531.64V125.016C531.016 124.984 530.52 124.936 530.152 124.824ZM541.236 125H539.828V116.456L537.988 118.248L537.14 117.304L539.812 114.744H541.236V125ZM547.829 125.192C545.605 125.192 543.957 122.936 543.957 119.864C543.957 116.808 545.573 114.552 547.781 114.552C550.037 114.552 551.653 116.808 551.669 119.864C551.685 122.936 550.069 125.192 547.829 125.192ZM547.813 123.864C549.237 123.864 550.245 122.216 550.245 119.864C550.245 117.528 549.237 115.88 547.781 115.88C546.373 115.88 545.381 117.528 545.381 119.864C545.381 122.216 546.389 123.864 547.813 123.864ZM554.276 123.176C554.852 123.176 555.268 123.592 555.268 124.136C555.268 124.456 555.172 124.728 554.98 125.064L553.844 127.048H553.012L553.956 125.016C553.556 124.872 553.3 124.584 553.3 124.136C553.3 123.576 553.748 123.176 554.276 123.176ZM559.397 125.192C557.845 125.192 556.757 124.6 556.005 123.528L557.045 122.6C557.717 123.496 558.453 123.864 559.445 123.864C560.949 123.864 561.653 122.984 561.653 121.896C561.653 120.712 560.917 119.896 559.077 119.896H558.197V119L561.045 116.008H556.549V114.744H562.821V115.912L560.053 118.792C562.277 119.112 563.077 120.328 563.077 121.896C563.077 123.704 561.829 125.192 559.397 125.192ZM567.845 123.88C569.285 123.88 570.085 122.952 570.085 121.816C570.085 120.68 569.365 119.704 567.861 119.704C566.869 119.704 566.293 119.928 565.669 120.328L565.013 119.88L565.845 114.744H570.933V116.008H567.013L566.517 118.824C566.901 118.616 567.525 118.488 568.117 118.488C570.325 118.488 571.493 119.976 571.493 121.832C571.493 123.704 570.181 125.208 567.861 125.208C566.309 125.208 565.221 124.6 564.469 123.544L565.509 122.6C566.181 123.496 566.917 123.88 567.845 123.88ZM577.079 125.192C574.855 125.192 573.207 122.936 573.207 119.864C573.207 116.808 574.823 114.552 577.031 114.552C579.287 114.552 580.903 116.808 580.919 119.864C580.935 122.936 579.319 125.192 577.079 125.192ZM577.063 123.864C578.487 123.864 579.495 122.216 579.495 119.864C579.495 117.528 578.487 115.88 577.031 115.88C575.623 115.88 574.631 117.528 574.631 119.864C574.631 122.216 575.639 123.864 577.063 123.864ZM583.702 125.144C583.174 125.144 582.726 124.712 582.726 124.168C582.726 123.624 583.174 123.16 583.702 123.16C584.262 123.16 584.71 123.624 584.71 124.168C584.71 124.712 584.262 125.144 583.702 125.144ZM589.908 125.192C587.684 125.192 586.036 122.936 586.036 119.864C586.036 116.808 587.652 114.552 589.86 114.552C592.116 114.552 593.732 116.808 593.748 119.864C593.764 122.936 592.148 125.192 589.908 125.192ZM589.891 123.864C591.316 123.864 592.324 122.216 592.324 119.864C592.324 117.528 591.316 115.88 589.86 115.88C588.452 115.88 587.46 117.528 587.46 119.864C587.46 122.216 588.468 123.864 589.891 123.864ZM599.314 125.192C597.09 125.192 595.442 122.936 595.442 119.864C595.442 116.808 597.058 114.552 599.266 114.552C601.522 114.552 603.138 116.808 603.154 119.864C603.17 122.936 601.554 125.192 599.314 125.192ZM599.298 123.864C600.722 123.864 601.73 122.216 601.73 119.864C601.73 117.528 600.722 115.88 599.266 115.88C597.858 115.88 596.866 117.528 596.866 119.864C596.866 122.216 597.874 123.864 599.298 123.864Z" fill="#333333"/>
<path d="M53.27 190.568H49.85V200H47.582V190.568H44.162V188.462H53.27V190.568ZM55.779 190.226C55.059 190.226 54.501 189.65 54.501 188.93C54.501 188.228 55.059 187.652 55.779 187.652C56.481 187.652 57.075 188.228 57.075 188.93C57.075 189.65 56.481 190.226 55.779 190.226ZM56.877 200H54.681V191.378H56.877V200ZM58.4572 193.322V191.378H59.9692V189.146H62.1832V191.378H64.5052V193.322H62.2012V196.994C62.2012 197.804 62.5252 198.182 63.1732 198.182C63.5872 198.182 63.9832 198.002 64.1992 197.75L65.1712 199.388C64.7032 199.856 63.8932 200.234 62.8312 200.234C61.0852 200.234 59.9692 199.154 59.9692 197.048V193.322H58.4572ZM69.9642 198.092L70.1982 200.018C69.8742 200.126 69.4602 200.198 69.1362 200.198C67.8942 200.198 66.6342 199.406 66.6342 197.21V187.616H68.8302V197.264C68.8302 197.93 69.2082 198.182 69.6042 198.182C69.7122 198.182 69.8562 198.146 69.9642 198.092ZM76.0986 200.234C73.4166 200.234 71.4726 198.2 71.4726 195.68C71.4726 193.178 73.3266 191.144 75.8106 191.144C78.2766 191.144 80.1666 193.034 80.1666 195.518C80.1666 195.806 80.1486 196.148 80.1126 196.292H73.7226C73.9566 197.48 74.8566 198.308 76.1706 198.308C77.0526 198.308 77.7906 197.93 78.2946 197.408L79.4286 198.92C78.7626 199.658 77.5386 200.234 76.0986 200.234ZM75.8466 192.998C74.8026 192.998 74.0466 193.718 73.7766 194.762H77.8986C77.6286 193.61 76.8546 192.998 75.8466 192.998Z" fill="#333333"/>
<mask id="path-9-inside-2_4429_75606" fill="white">
<path d="M93 192C93 186.477 97.4772 182 103 182H424C429.523 182 434 186.477 434 192V192C434 197.523 429.523 202 424 202H103C97.4771 202 93 197.523 93 192V192Z"/>
</mask>
<path d="M93 192C93 186.477 97.4772 182 103 182H424C429.523 182 434 186.477 434 192V192C434 197.523 429.523 202 424 202H103C97.4771 202 93 197.523 93 192V192Z" fill="#F7F7F7"/>
<path d="M103 184H424V180H103V184ZM424 200H103V204H424V200ZM103 200C98.5817 200 95 196.418 95 192H91C91 198.627 96.3726 204 103 204V200ZM432 192C432 196.418 428.418 200 424 200V204C430.627 204 436 198.627 436 192H432ZM424 184C428.418 184 432 187.582 432 192H436C436 185.373 430.627 180 424 180V184ZM103 180C96.3726 180 91 185.373 91 192H95C95 187.582 98.5817 184 103 184V180Z" fill="#878787" mask="url(#path-9-inside-2_4429_75606)"/>
<path d="M93 192C93 186.477 97.4772 182 103 182H257C262.523 182 267 186.477 267 192V192C267 197.523 262.523 202 257 202H103C97.4772 202 93 197.523 93 192V192Z" fill="#1A3673"/>
<path d="M448.384 196.84C447.904 196.728 447.296 196.408 446.512 195.912L447.344 194.248C448.208 194.792 449.488 195.16 450.48 195.16C451.488 195.16 452.256 194.776 452.256 193.96C452.256 192.104 446.848 193.272 446.848 189.72C446.848 188.088 448.128 187.032 449.808 186.76V185.304H451.456V186.744C452.464 186.856 453.376 187.192 454.144 187.768L453.184 189.32C452.512 188.872 451.488 188.584 450.592 188.584C449.648 188.584 448.992 189 448.992 189.672C448.992 191.464 454.384 190.616 454.384 193.864C454.384 195.608 453.12 196.632 451.456 196.936V198.44H449.808V197.016C449.216 197 448.736 196.936 448.384 196.84ZM458.875 195.384C460.059 195.384 460.747 194.664 460.747 193.704C460.747 192.76 460.091 192.008 458.875 192.008C458.011 192.008 457.451 192.232 456.907 192.552L456.027 191.928L456.843 186.744H462.107V188.472H458.443L458.091 190.552C458.395 190.408 458.891 190.344 459.291 190.344C461.435 190.344 462.699 191.768 462.699 193.736C462.699 195.736 461.259 197.224 458.907 197.224C457.275 197.224 456.107 196.536 455.403 195.48L456.827 194.2C457.403 195.032 458.075 195.384 458.875 195.384ZM465.47 194.664C466.158 194.664 466.702 195.192 466.702 195.88C466.702 196.2 466.59 196.584 466.318 197.016L465.166 198.936H464.094L465.038 196.984C464.558 196.792 464.222 196.424 464.222 195.896C464.222 195.192 464.766 194.664 465.47 194.664ZM471.109 197H469.157V189.064L467.541 190.648L466.373 189.352L469.125 186.744H471.109V197ZM475.87 197H473.774L477.614 188.472H473.054V186.744H479.694V188.296L475.87 197ZM483.859 195.384C485.043 195.384 485.731 194.664 485.731 193.704C485.731 192.76 485.075 192.008 483.859 192.008C482.995 192.008 482.435 192.232 481.891 192.552L481.011 191.928L481.827 186.744H487.091V188.472H483.427L483.075 190.552C483.379 190.408 483.875 190.344 484.275 190.344C486.419 190.344 487.683 191.768 487.683 193.736C487.683 195.736 486.243 197.224 483.891 197.224C482.259 197.224 481.091 196.536 480.387 195.48L481.811 194.2C482.387 195.032 483.059 195.384 483.859 195.384ZM490.423 197.192C489.735 197.192 489.159 196.632 489.159 195.928C489.159 195.224 489.735 194.648 490.423 194.648C491.127 194.648 491.703 195.224 491.703 195.928C491.703 196.632 491.127 197.192 490.423 197.192ZM496.924 197.208C494.572 197.208 492.86 194.952 492.86 191.864C492.86 188.792 494.54 186.536 496.828 186.536C499.212 186.536 500.908 188.792 500.908 191.864C500.94 194.952 499.244 197.208 496.924 197.208ZM496.892 195.384C498.124 195.384 498.956 193.96 498.956 191.864C498.956 189.8 498.108 188.36 496.844 188.36C495.644 188.36 494.812 189.784 494.812 191.864C494.812 193.96 495.66 195.384 496.892 195.384ZM506.377 197.208C504.025 197.208 502.313 194.952 502.313 191.864C502.313 188.792 503.993 186.536 506.281 186.536C508.665 186.536 510.361 188.792 510.361 191.864C510.393 194.952 508.697 197.208 506.377 197.208ZM506.345 195.384C507.577 195.384 508.409 193.96 508.409 191.864C508.409 189.8 507.561 188.36 506.297 188.36C505.097 188.36 504.265 189.784 504.265 191.864C504.265 193.96 505.113 195.384 506.345 195.384Z" fill="#333333"/>
<path d="M516.771 197L521.283 186.744H522.755L518.227 197H516.771Z" fill="#333333"/>
<path d="M530.152 196.824C529.688 196.712 529.08 196.408 528.312 195.912L528.936 194.696C529.848 195.288 531.128 195.656 532.152 195.656C533.4 195.656 534.36 195.112 534.36 194.056C534.36 191.784 528.632 193.08 528.632 189.608C528.632 188.04 529.896 186.968 531.64 186.744V185.384H532.872V186.728C533.928 186.808 534.824 187.112 535.576 187.656L534.872 188.792C534.2 188.344 533.208 188.072 532.216 188.072C531 188.072 530.168 188.696 530.168 189.56C530.168 191.752 535.896 190.696 535.896 193.96C535.896 195.736 534.568 196.728 532.872 196.968V198.36H531.64V197.016C531.016 196.984 530.52 196.936 530.152 196.824ZM541.236 197H539.828V188.456L537.988 190.248L537.14 189.304L539.812 186.744H541.236V197ZM547.829 197.192C545.605 197.192 543.957 194.936 543.957 191.864C543.957 188.808 545.573 186.552 547.781 186.552C550.037 186.552 551.653 188.808 551.669 191.864C551.685 194.936 550.069 197.192 547.829 197.192ZM547.813 195.864C549.237 195.864 550.245 194.216 550.245 191.864C550.245 189.528 549.237 187.88 547.781 187.88C546.373 187.88 545.381 189.528 545.381 191.864C545.381 194.216 546.389 195.864 547.813 195.864ZM554.276 195.176C554.852 195.176 555.268 195.592 555.268 196.136C555.268 196.456 555.172 196.728 554.98 197.064L553.844 199.048H553.012L553.956 197.016C553.556 196.872 553.3 196.584 553.3 196.136C553.3 195.576 553.748 195.176 554.276 195.176ZM559.397 197.192C557.845 197.192 556.757 196.6 556.005 195.528L557.045 194.6C557.717 195.496 558.453 195.864 559.445 195.864C560.949 195.864 561.653 194.984 561.653 193.896C561.653 192.712 560.917 191.896 559.077 191.896H558.197V191L561.045 188.008H556.549V186.744H562.821V187.912L560.053 190.792C562.277 191.112 563.077 192.328 563.077 193.896C563.077 195.704 561.829 197.192 559.397 197.192ZM567.845 195.88C569.285 195.88 570.085 194.952 570.085 193.816C570.085 192.68 569.365 191.704 567.861 191.704C566.869 191.704 566.293 191.928 565.669 192.328L565.013 191.88L565.845 186.744H570.933V188.008H567.013L566.517 190.824C566.901 190.616 567.525 190.488 568.117 190.488C570.325 190.488 571.493 191.976 571.493 193.832C571.493 195.704 570.181 197.208 567.861 197.208C566.309 197.208 565.221 196.6 564.469 195.544L565.509 194.6C566.181 195.496 566.917 195.88 567.845 195.88ZM577.079 197.192C574.855 197.192 573.207 194.936 573.207 191.864C573.207 188.808 574.823 186.552 577.031 186.552C579.287 186.552 580.903 188.808 580.919 191.864C580.935 194.936 579.319 197.192 577.079 197.192ZM577.063 195.864C578.487 195.864 579.495 194.216 579.495 191.864C579.495 189.528 578.487 187.88 577.031 187.88C575.623 187.88 574.631 189.528 574.631 191.864C574.631 194.216 575.639 195.864 577.063 195.864ZM583.702 197.144C583.174 197.144 582.726 196.712 582.726 196.168C582.726 195.624 583.174 195.16 583.702 195.16C584.262 195.16 584.71 195.624 584.71 196.168C584.71 196.712 584.262 197.144 583.702 197.144ZM589.908 197.192C587.684 197.192 586.036 194.936 586.036 191.864C586.036 188.808 587.652 186.552 589.86 186.552C592.116 186.552 593.732 188.808 593.748 191.864C593.764 194.936 592.148 197.192 589.908 197.192ZM589.891 195.864C591.316 195.864 592.324 194.216 592.324 191.864C592.324 189.528 591.316 187.88 589.86 187.88C588.452 187.88 587.46 189.528 587.46 191.864C587.46 194.216 588.468 195.864 589.891 195.864ZM599.314 197.192C597.09 197.192 595.442 194.936 595.442 191.864C595.442 188.808 597.058 186.552 599.266 186.552C601.522 186.552 603.138 188.808 603.154 191.864C603.17 194.936 601.554 197.192 599.314 197.192ZM599.298 195.864C600.722 195.864 601.73 194.216 601.73 191.864C601.73 189.528 600.722 187.88 599.266 187.88C597.858 187.88 596.866 189.528 596.866 191.864C596.866 194.216 597.874 195.864 599.298 195.864Z" fill="#333333"/>
</svg>
