<svg width="648" height="386" viewBox="0 0 648 386" fill="none" xmlns="http://www.w3.org/2000/svg">
<rect x="0.5" y="0.5" width="647" height="385" fill="#F7F7F7"/>
<rect x="0.5" y="0.5" width="647" height="385" stroke="#EEEEEE"/>
<path d="M155.696 46.928L154.368 48.464C153.776 47.92 152.944 47.52 151.92 47.52C150.176 47.52 148.784 49.024 148.784 50.88C148.784 52.72 150.176 54.224 152.048 54.224C152.928 54.224 153.808 53.888 154.384 53.296L155.696 54.768C154.8 55.76 153.568 56.208 151.92 56.208C148.928 56.208 146.64 53.808 146.64 50.88C146.64 47.92 149.008 45.536 151.904 45.536C153.632 45.536 154.848 46.064 155.696 46.928ZM160.279 56.208C158.055 56.208 156.295 54.4 156.295 52.16C156.295 49.936 158.055 48.128 160.279 48.128C162.503 48.128 164.263 49.936 164.263 52.16C164.263 54.4 162.503 56.208 160.279 56.208ZM160.279 54.384C161.463 54.384 162.311 53.392 162.311 52.16C162.311 50.928 161.463 49.952 160.279 49.952C159.095 49.952 158.247 50.928 158.247 52.16C158.247 53.392 159.095 54.384 160.279 54.384ZM167.899 56H165.947V48.336H167.899V49.504C168.299 48.672 169.051 48.128 170.059 48.128C171.227 48.128 172.123 48.704 172.571 49.728C172.971 48.816 173.707 48.128 174.923 48.128C176.699 48.128 177.867 49.312 177.867 51.36V56H175.899V51.648C175.899 50.608 175.323 49.952 174.395 49.952C173.467 49.952 172.875 50.608 172.875 51.648V56H170.923V51.648C170.923 50.608 170.347 49.952 169.419 49.952C168.491 49.952 167.899 50.608 167.899 51.648V56ZM181.915 59.136H179.963V48.336H181.915V49.424C182.427 48.64 183.227 48.128 184.267 48.128C186.283 48.128 187.947 49.776 187.947 52.176C187.947 54.48 186.395 56.208 184.267 56.208C183.227 56.208 182.427 55.744 181.915 54.976V59.136ZM183.963 54.384C185.131 54.384 185.995 53.408 185.995 52.176C185.995 50.944 185.131 49.952 183.963 49.952C182.779 49.952 181.915 50.944 181.915 52.176C181.915 53.408 182.779 54.384 183.963 54.384ZM192.564 54.304L192.772 56.016C192.484 56.112 192.116 56.176 191.828 56.176C190.724 56.176 189.604 55.472 189.604 53.52V44.992H191.556V53.568C191.556 54.16 191.892 54.384 192.244 54.384C192.34 54.384 192.468 54.352 192.564 54.304ZM198.016 56.208C195.633 56.208 193.905 54.4 193.905 52.16C193.905 49.936 195.553 48.128 197.761 48.128C199.953 48.128 201.633 49.808 201.633 52.016C201.633 52.272 201.617 52.576 201.585 52.704H195.905C196.113 53.76 196.913 54.496 198.081 54.496C198.865 54.496 199.521 54.16 199.969 53.696L200.977 55.04C200.385 55.696 199.297 56.208 198.016 56.208ZM197.793 49.776C196.865 49.776 196.193 50.416 195.953 51.344H199.617C199.377 50.32 198.689 49.776 197.793 49.776ZM202.413 50.064V48.336H203.757V46.352H205.725V48.336H207.789V50.064H205.741V53.328C205.741 54.048 206.029 54.384 206.605 54.384C206.973 54.384 207.325 54.224 207.517 54L208.381 55.456C207.965 55.872 207.245 56.208 206.301 56.208C204.749 56.208 203.757 55.248 203.757 53.376V50.064H202.413ZM210.658 47.312C210.018 47.312 209.522 46.8 209.522 46.16C209.522 45.536 210.018 45.024 210.658 45.024C211.282 45.024 211.81 45.536 211.81 46.16C211.81 46.8 211.282 47.312 210.658 47.312ZM211.634 56H209.682V48.336H211.634V56ZM217.31 56.208C215.086 56.208 213.326 54.4 213.326 52.16C213.326 49.936 215.086 48.128 217.31 48.128C219.534 48.128 221.294 49.936 221.294 52.16C221.294 54.4 219.534 56.208 217.31 56.208ZM217.31 54.384C218.494 54.384 219.342 53.392 219.342 52.16C219.342 50.928 218.494 49.952 217.31 49.952C216.126 49.952 215.278 50.928 215.278 52.16C215.278 53.392 216.126 54.384 217.31 54.384ZM222.979 56V48.336H224.931V49.424C225.331 48.608 226.099 48.128 227.107 48.128C228.867 48.128 230.003 49.36 230.003 51.36V56H228.051V51.648C228.051 50.608 227.459 49.952 226.499 49.952C225.539 49.952 224.931 50.608 224.931 51.648V56H222.979ZM235.621 56V45.76H239.045C242.421 45.76 244.837 47.888 244.837 50.88C244.837 53.872 242.453 56 239.109 56H235.621ZM239.029 47.632H237.685V54.112H239.045C241.237 54.112 242.693 52.832 242.693 50.88C242.693 48.912 241.237 47.632 239.029 47.632ZM249.74 56.208C247.724 56.208 246.076 54.56 246.076 52.16C246.076 49.856 247.628 48.128 249.74 48.128C250.78 48.128 251.58 48.592 252.092 49.344V48.336H254.044V56H252.092V54.912C251.58 55.696 250.78 56.208 249.74 56.208ZM250.06 54.384C251.244 54.384 252.092 53.392 252.092 52.16C252.092 50.928 251.244 49.952 250.06 49.952C248.876 49.952 248.028 50.928 248.028 52.16C248.028 53.392 248.876 54.384 250.06 54.384ZM255.429 50.064V48.336H256.773V46.352H258.741V48.336H260.805V50.064H258.757V53.328C258.757 54.048 259.045 54.384 259.621 54.384C259.989 54.384 260.341 54.224 260.533 54L261.397 55.456C260.981 55.872 260.261 56.208 259.317 56.208C257.765 56.208 256.773 55.248 256.773 53.376V50.064H255.429ZM265.938 56.208C263.554 56.208 261.826 54.4 261.826 52.16C261.826 49.936 263.474 48.128 265.682 48.128C267.874 48.128 269.554 49.808 269.554 52.016C269.554 52.272 269.538 52.576 269.506 52.704H263.826C264.034 53.76 264.834 54.496 266.002 54.496C266.786 54.496 267.442 54.16 267.89 53.696L268.898 55.04C268.306 55.696 267.218 56.208 265.938 56.208ZM265.714 49.776C264.786 49.776 264.114 50.416 263.874 51.344H267.538C267.298 50.32 266.61 49.776 265.714 49.776Z" fill="#333333"/>
<rect x="146.5" y="66.5" width="355" height="39" stroke="#666666"/>
<path d="M164.296 89.236L160.95 84.042V91H159.69V82.026H161.132L164.352 87.066L167.6 82.026H168.888V91H167.628V84.168L164.296 89.236ZM175.876 89.236L172.53 84.042V91H171.27V82.026H172.712L175.932 87.066L179.18 82.026H180.468V91H179.208V84.168L175.876 89.236ZM181.87 91L185.818 82.026H187.106L183.144 91H181.87ZM188.51 91V82.04H191.254C194.236 82.04 196.308 83.874 196.308 86.52C196.308 89.166 194.292 91 191.38 91H188.51ZM191.282 83.23H189.798V89.81H191.282C193.508 89.81 194.964 88.508 194.964 86.52C194.964 84.532 193.508 83.23 191.282 83.23ZM198.19 91V82.04H200.934C203.916 82.04 205.988 83.874 205.988 86.52C205.988 89.166 203.972 91 201.06 91H198.19ZM200.962 83.23H199.478V89.81H200.962C203.188 89.81 204.644 88.508 204.644 86.52C204.644 84.532 203.188 83.23 200.962 83.23ZM206.89 91L210.838 82.026H212.126L208.164 91H206.89ZM215.812 91V87.976L212.466 82.026H213.894L216.47 86.646L219.06 82.026H220.418L217.086 87.976V91H215.812ZM224.029 91V87.976L220.683 82.026H222.111L224.687 86.646L227.277 82.026H228.635L225.303 87.976V91H224.029ZM232.245 91V87.976L228.899 82.026H230.327L232.903 86.646L235.493 82.026H236.851L233.519 87.976V91H232.245ZM240.462 91V87.976L237.116 82.026H238.544L241.12 86.646L243.71 82.026H245.068L241.736 87.976V91H240.462Z" fill="#666666"/>
<path fill-rule="evenodd" clip-rule="evenodd" d="M478.166 78V78.6957H484.833V78H486.166V78.6957H488.833V94H474.166V78.6957H476.833V78H478.166ZM487.499 82.8696H475.499V92.6087H487.499V82.8696ZM478.166 89.8261V91.2174H476.833V89.8261H478.166ZM480.833 89.8261V91.2174H479.499V89.8261H480.833ZM483.499 89.8261V91.2174H482.166V89.8261H483.499ZM478.166 87.0435V88.4348H476.833V87.0435H478.166ZM480.833 87.0435V88.4348H479.499V87.0435H480.833ZM483.499 87.0435V88.4348H482.166V87.0435H483.499ZM486.166 87.0435V88.4348H484.833V87.0435H486.166ZM480.833 84.2609V85.6522H479.499V84.2609H480.833ZM483.499 84.2609V85.6522H482.166V84.2609H483.499ZM486.166 84.2609V85.6522H484.833V84.2609H486.166ZM476.833 80.087H475.499V81.4783H487.499V80.087H486.166V80.7826H484.833V80.087H478.166V80.7826H476.833V80.087Z" fill="#286CE2"/>
<mask id="mask0_4102_64101" style="mask-type:luminance" maskUnits="userSpaceOnUse" x="474" y="78" width="15" height="16">
<path fill-rule="evenodd" clip-rule="evenodd" d="M478.166 78V78.6957H484.833V78H486.166V78.6957H488.833V94H474.166V78.6957H476.833V78H478.166ZM487.499 82.8696H475.499V92.6087H487.499V82.8696ZM478.166 89.8261V91.2174H476.833V89.8261H478.166ZM480.833 89.8261V91.2174H479.499V89.8261H480.833ZM483.499 89.8261V91.2174H482.166V89.8261H483.499ZM478.166 87.0435V88.4348H476.833V87.0435H478.166ZM480.833 87.0435V88.4348H479.499V87.0435H480.833ZM483.499 87.0435V88.4348H482.166V87.0435H483.499ZM486.166 87.0435V88.4348H484.833V87.0435H486.166ZM480.833 84.2609V85.6522H479.499V84.2609H480.833ZM483.499 84.2609V85.6522H482.166V84.2609H483.499ZM486.166 84.2609V85.6522H484.833V84.2609H486.166ZM476.833 80.087H475.499V81.4783H487.499V80.087H486.166V80.7826H484.833V80.087H478.166V80.7826H476.833V80.087Z" fill="white"/>
</mask>
<g mask="url(#mask0_4102_64101)">
</g>
<path d="M147.168 171V160.76H150.592C153.968 160.76 156.384 162.888 156.384 165.88C156.384 168.872 154 171 150.656 171H147.168ZM150.576 162.632H149.232V169.112H150.592C152.784 169.112 154.24 167.832 154.24 165.88C154.24 163.912 152.784 162.632 150.576 162.632ZM159.095 162.312C158.455 162.312 157.959 161.8 157.959 161.16C157.959 160.536 158.455 160.024 159.095 160.024C159.719 160.024 160.247 160.536 160.247 161.16C160.247 161.8 159.719 162.312 159.095 162.312ZM160.071 171H158.119V163.336H160.071V171ZM165.428 171.208C163.412 171.208 161.764 169.56 161.764 167.16C161.764 164.856 163.316 163.128 165.428 163.128C166.468 163.128 167.268 163.592 167.78 164.344V163.336H169.732V171H167.78V169.912C167.268 170.696 166.468 171.208 165.428 171.208ZM165.748 169.384C166.932 169.384 167.78 168.392 167.78 167.16C167.78 165.928 166.932 164.952 165.748 164.952C164.564 164.952 163.716 165.928 163.716 167.16C163.716 168.392 164.564 169.384 165.748 169.384ZM172.957 171.816C173.341 172.104 174.093 172.568 175.181 172.568C176.493 172.568 177.309 171.864 177.309 170.552V169.64C176.797 170.408 176.013 170.888 174.973 170.888C173.005 170.888 171.405 169.304 171.405 167C171.405 164.776 173.005 163.176 174.973 163.176C176.013 163.176 176.797 163.592 177.309 164.312V163.336H179.26V170.456C179.26 173.496 177.181 174.344 175.293 174.344C173.885 174.344 172.701 173.992 171.965 173.336L172.957 171.816ZM175.341 169.048C176.477 169.048 177.309 168.136 177.309 167C177.309 165.864 176.477 164.952 175.341 164.952C174.205 164.952 173.357 165.864 173.357 167C173.357 168.152 174.205 169.048 175.341 169.048ZM181.432 171V163.336H183.384V164.424C183.784 163.608 184.552 163.128 185.56 163.128C187.32 163.128 188.456 164.36 188.456 166.36V171H186.504V166.648C186.504 165.608 185.912 164.952 184.952 164.952C183.992 164.952 183.384 165.608 183.384 166.648V171H181.432ZM194.06 171.208C191.836 171.208 190.076 169.4 190.076 167.16C190.076 164.936 191.836 163.128 194.06 163.128C196.284 163.128 198.044 164.936 198.044 167.16C198.044 169.4 196.284 171.208 194.06 171.208ZM194.06 169.384C195.244 169.384 196.092 168.392 196.092 167.16C196.092 165.928 195.244 164.952 194.06 164.952C192.876 164.952 192.028 165.928 192.028 167.16C192.028 168.392 192.876 169.384 194.06 169.384ZM202.034 171.208C200.802 171.208 199.794 170.888 199.042 170.472L199.666 168.968C200.546 169.384 201.282 169.608 202.13 169.608C202.994 169.608 203.394 169.304 203.394 168.856C203.394 167.48 199.266 168.296 199.266 165.4C199.266 164.248 200.29 163.128 202.258 163.128C203.33 163.128 204.146 163.352 205.122 163.816L204.402 165.272C203.858 164.968 203.042 164.728 202.418 164.728C201.682 164.728 201.234 164.968 201.234 165.384C201.234 166.792 205.33 165.912 205.33 168.824C205.33 170.152 204.146 171.208 202.034 171.208ZM207.908 162.312C207.268 162.312 206.772 161.8 206.772 161.16C206.772 160.536 207.268 160.024 207.908 160.024C208.532 160.024 209.06 160.536 209.06 161.16C209.06 161.8 208.532 162.312 207.908 162.312ZM208.884 171H206.932V163.336H208.884V171ZM213.424 171.208C212.192 171.208 211.184 170.888 210.432 170.472L211.056 168.968C211.936 169.384 212.672 169.608 213.52 169.608C214.384 169.608 214.784 169.304 214.784 168.856C214.784 167.48 210.656 168.296 210.656 165.4C210.656 164.248 211.68 163.128 213.648 163.128C214.72 163.128 215.536 163.352 216.512 163.816L215.792 165.272C215.248 164.968 214.432 164.728 213.808 164.728C213.072 164.728 212.624 164.968 212.624 165.384C212.624 166.792 216.72 165.912 216.72 168.824C216.72 170.152 215.536 171.208 213.424 171.208ZM230.352 161.928L229.024 163.464C228.432 162.92 227.6 162.52 226.576 162.52C224.832 162.52 223.44 164.024 223.44 165.88C223.44 167.72 224.832 169.224 226.704 169.224C227.584 169.224 228.464 168.888 229.04 168.296L230.352 169.768C229.456 170.76 228.224 171.208 226.576 171.208C223.584 171.208 221.296 168.808 221.296 165.88C221.296 162.92 223.664 160.536 226.56 160.536C228.288 160.536 229.504 161.064 230.352 161.928ZM234.935 171.208C232.711 171.208 230.951 169.4 230.951 167.16C230.951 164.936 232.711 163.128 234.935 163.128C237.159 163.128 238.919 164.936 238.919 167.16C238.919 169.4 237.159 171.208 234.935 171.208ZM234.935 169.384C236.119 169.384 236.967 168.392 236.967 167.16C236.967 165.928 236.119 164.952 234.935 164.952C233.751 164.952 232.903 165.928 232.903 167.16C232.903 168.392 233.751 169.384 234.935 169.384ZM243.772 171.208C241.756 171.208 240.108 169.56 240.108 167.16C240.108 164.856 241.66 163.128 243.772 163.128C244.812 163.128 245.612 163.592 246.124 164.344V159.992H248.076V171H246.124V169.912C245.612 170.696 244.812 171.208 243.772 171.208ZM244.092 169.384C245.276 169.384 246.124 168.392 246.124 167.16C246.124 165.928 245.276 164.952 244.092 164.952C242.908 164.952 242.06 165.928 242.06 167.16C242.06 168.392 242.908 169.384 244.092 169.384ZM253.86 171.208C251.476 171.208 249.748 169.4 249.748 167.16C249.748 164.936 251.396 163.128 253.604 163.128C255.796 163.128 257.476 164.808 257.476 167.016C257.476 167.272 257.46 167.576 257.428 167.704H251.748C251.956 168.76 252.756 169.496 253.924 169.496C254.708 169.496 255.364 169.16 255.812 168.696L256.82 170.04C256.228 170.696 255.14 171.208 253.86 171.208ZM253.636 164.776C252.708 164.776 252.036 165.416 251.796 166.344H255.46C255.22 165.32 254.532 164.776 253.636 164.776ZM263.153 172.408L261.921 173.512C259.937 171.656 258.705 169.352 258.705 166.616C258.705 163.88 259.937 161.576 261.921 159.704L263.153 160.808C261.585 162.328 260.657 164.264 260.657 166.616C260.657 168.968 261.585 170.904 263.153 172.408ZM266.753 171.208C265.521 171.208 264.513 170.888 263.761 170.472L264.385 168.968C265.265 169.384 266.001 169.608 266.849 169.608C267.713 169.608 268.113 169.304 268.113 168.856C268.113 167.48 263.985 168.296 263.985 165.4C263.985 164.248 265.009 163.128 266.977 163.128C268.049 163.128 268.865 163.352 269.841 163.816L269.121 165.272C268.577 164.968 267.761 164.728 267.137 164.728C266.401 164.728 265.953 164.968 265.953 165.384C265.953 166.792 270.049 165.912 270.049 168.824C270.049 170.152 268.865 171.208 266.753 171.208ZM271.955 173.512L270.707 172.408C272.291 170.904 273.203 168.968 273.203 166.616C273.203 164.264 272.291 162.328 270.707 160.808L271.955 159.704C273.955 161.576 275.171 163.88 275.171 166.616C275.171 169.352 273.955 171.656 271.955 173.512Z" fill="#333333"/>
<path fill-rule="evenodd" clip-rule="evenodd" d="M290 156C295.514 156 300 160.486 300 166C300 171.514 295.514 176 290 176C284.486 176 280 171.514 280 166C280 160.486 284.486 156 290 156ZM290 157.667C285.387 157.667 281.667 161.387 281.667 166C281.667 170.613 285.387 174.333 290 174.333C294.613 174.333 298.333 170.613 298.333 166C298.333 161.387 294.613 157.667 290 157.667ZM290.833 169.333V171H289.167V169.333H290.833ZM290 161C291.833 161 293.333 162.501 293.333 164.333C293.333 165.684 292.454 166.902 291.172 167.328V167.328L290.833 167.432V168.5H289.167V167.432C289.167 166.719 289.632 166.068 290.313 165.844V165.844L290.651 165.74C291.257 165.538 291.667 164.971 291.667 164.333C291.667 163.402 290.931 162.667 290 162.667C289.069 162.667 288.333 163.402 288.333 164.333V164.333H286.667C286.667 162.501 288.167 161 290 161Z" fill="#1A3673"/>
<mask id="mask1_4102_64101" style="mask-type:luminance" maskUnits="userSpaceOnUse" x="280" y="156" width="20" height="20">
<path fill-rule="evenodd" clip-rule="evenodd" d="M290 156C295.514 156 300 160.486 300 166C300 171.514 295.514 176 290 176C284.486 176 280 171.514 280 166C280 160.486 284.486 156 290 156ZM290 157.667C285.387 157.667 281.667 161.387 281.667 166C281.667 170.613 285.387 174.333 290 174.333C294.613 174.333 298.333 170.613 298.333 166C298.333 161.387 294.613 157.667 290 157.667ZM290.833 169.333V171H289.167V169.333H290.833ZM290 161C291.833 161 293.333 162.501 293.333 164.333C293.333 165.684 292.454 166.902 291.172 167.328V167.328L290.833 167.432V168.5H289.167V167.432C289.167 166.719 289.632 166.068 290.313 165.844V165.844L290.651 165.74C291.257 165.538 291.667 164.971 291.667 164.333C291.667 163.402 290.931 162.667 290 162.667C289.069 162.667 288.333 163.402 288.333 164.333V164.333H286.667C286.667 162.501 288.167 161 290 161Z" fill="white"/>
</mask>
<g mask="url(#mask1_4102_64101)">
</g>
<mask id="path-10-inside-1_4102_64101" fill="white">
<path d="M146 182H502V226H146V182Z"/>
</mask>
<path d="M146 182H502V226H146V182Z" fill="white"/>
<path d="M146 182V181H145V182H146ZM502 182H503V181H502V182ZM502 226V227H503V226H502ZM146 226H145V227H146V226ZM146 183H502V181H146V183ZM501 182V226H503V182H501ZM502 225H146V227H502V225ZM147 226V182H145V226H147Z" fill="#666666" mask="url(#path-10-inside-1_4102_64101)"/>
<path d="M162.144 208H160.912V200.524L159.302 202.092L158.56 201.266L160.898 199.026H162.144V208ZM164.105 208V207.034L167.619 203.66C168.361 202.946 168.725 202.33 168.725 201.588C168.725 200.748 168.039 200.02 167.017 200.02C166.107 200.02 165.449 200.538 165.015 201.378L164.035 200.748C164.553 199.726 165.491 198.858 167.073 198.858C168.837 198.858 169.957 200.104 169.957 201.574C169.957 202.554 169.565 203.338 168.487 204.36L165.813 206.894H170.055V208H164.105ZM174.37 208.168C172.606 208.168 171.304 207.02 171.304 205.452C171.304 204.402 171.948 203.534 172.942 203.1C172.172 202.722 171.682 202.008 171.682 201.154C171.682 199.824 172.816 198.858 174.37 198.858C175.938 198.858 177.086 199.824 177.086 201.154C177.086 202.008 176.61 202.722 175.84 203.1C176.834 203.534 177.464 204.402 177.464 205.452C177.464 207.02 176.148 208.168 174.37 208.168ZM174.398 202.624C175.238 202.624 175.868 202.05 175.868 201.28C175.868 200.496 175.238 199.922 174.398 199.922C173.544 199.922 172.9 200.496 172.9 201.28C172.9 202.05 173.544 202.624 174.398 202.624ZM174.398 207.104C175.434 207.104 176.218 206.362 176.218 205.368C176.218 204.388 175.434 203.646 174.398 203.646C173.334 203.646 172.55 204.388 172.55 205.368C172.55 206.362 173.334 207.104 174.398 207.104ZM181.248 208.168C179.89 208.168 178.938 207.65 178.28 206.712L179.19 205.9C179.778 206.684 180.422 207.006 181.29 207.006C182.606 207.006 183.222 206.236 183.222 205.284C183.222 204.248 182.578 203.534 180.968 203.534H180.198V202.75L182.69 200.132H178.756V199.026H184.244V200.048L181.822 202.568C183.768 202.848 184.468 203.912 184.468 205.284C184.468 206.866 183.376 208.168 181.248 208.168ZM185.462 204.99L189.914 199.026H191.006V204.99H192.364V206.096H191.006V208H189.802V206.096H185.462V204.99ZM186.764 204.99H189.802V200.832L186.764 204.99Z" fill="#666666"/>
<path d="M147.168 291V280.744H150.832C153.312 280.744 154.944 282.088 154.944 284.136C154.944 286.2 153.296 287.56 150.8 287.56H149.168V291H147.168ZM150.992 282.52H149.168V285.784H150.992C152.096 285.784 152.832 285.128 152.832 284.136C152.832 283.16 152.096 282.52 150.992 282.52ZM156.51 291V283.336H158.462V284.472C158.83 283.656 159.486 283.128 160.35 283.128C160.862 283.128 161.278 283.256 161.566 283.496L160.766 285.336C160.51 285.144 160.126 285.016 159.742 285.016C158.974 285.016 158.462 285.672 158.462 286.712V291H156.51ZM165.748 291.208C163.524 291.208 161.764 289.4 161.764 287.16C161.764 284.936 163.524 283.128 165.748 283.128C167.972 283.128 169.732 284.936 169.732 287.16C169.732 289.4 167.972 291.208 165.748 291.208ZM165.748 289.384C166.932 289.384 167.78 288.392 167.78 287.16C167.78 285.928 166.932 284.952 165.748 284.952C164.564 284.952 163.716 285.928 163.716 287.16C163.716 288.392 164.564 289.384 165.748 289.384ZM175.489 291H172.945L170.177 283.336H172.321L174.273 289.256L176.257 283.336H178.257L175.489 291ZM180.517 282.312C179.877 282.312 179.381 281.8 179.381 281.16C179.381 280.536 179.877 280.024 180.517 280.024C181.141 280.024 181.669 280.536 181.669 281.16C181.669 281.8 181.141 282.312 180.517 282.312ZM181.493 291H179.541V283.336H181.493V291ZM186.85 291.208C184.834 291.208 183.186 289.56 183.186 287.16C183.186 284.856 184.738 283.128 186.85 283.128C187.89 283.128 188.69 283.592 189.202 284.344V279.992H191.154V291H189.202V289.912C188.69 290.696 187.89 291.208 186.85 291.208ZM187.17 289.384C188.354 289.384 189.202 288.392 189.202 287.16C189.202 285.928 188.354 284.952 187.17 284.952C185.986 284.952 185.138 285.928 185.138 287.16C185.138 288.392 185.986 289.384 187.17 289.384ZM196.938 291.208C194.554 291.208 192.826 289.4 192.826 287.16C192.826 284.936 194.474 283.128 196.682 283.128C198.874 283.128 200.554 284.808 200.554 287.016C200.554 287.272 200.538 287.576 200.506 287.704H194.826C195.034 288.76 195.834 289.496 197.002 289.496C197.786 289.496 198.442 289.16 198.89 288.696L199.898 290.04C199.306 290.696 198.218 291.208 196.938 291.208ZM196.714 284.776C195.786 284.776 195.114 285.416 194.874 286.344H198.538C198.298 285.32 197.61 284.776 196.714 284.776ZM202.119 291V283.336H204.071V284.472C204.439 283.656 205.095 283.128 205.959 283.128C206.471 283.128 206.887 283.256 207.175 283.496L206.375 285.336C206.119 285.144 205.735 285.016 205.351 285.016C204.583 285.016 204.071 285.672 204.071 286.712V291H202.119ZM218.78 291L213.996 284.056V291H211.996V280.744H214.14L218.94 287.768V280.744H220.94V291H218.78ZM226.334 291.208C224.318 291.208 222.67 289.56 222.67 287.16C222.67 284.856 224.222 283.128 226.334 283.128C227.374 283.128 228.174 283.592 228.686 284.344V283.336H230.638V291H228.686V289.912C228.174 290.696 227.374 291.208 226.334 291.208ZM226.654 289.384C227.838 289.384 228.686 288.392 228.686 287.16C228.686 285.928 227.838 284.952 226.654 284.952C225.47 284.952 224.622 285.928 224.622 287.16C224.622 288.392 225.47 289.384 226.654 289.384ZM234.759 291H232.807V283.336H234.759V284.504C235.159 283.672 235.911 283.128 236.919 283.128C238.087 283.128 238.983 283.704 239.431 284.728C239.831 283.816 240.567 283.128 241.783 283.128C243.559 283.128 244.727 284.312 244.727 286.36V291H242.759V286.648C242.759 285.608 242.183 284.952 241.255 284.952C240.327 284.952 239.735 285.608 239.735 286.648V291H237.783V286.648C237.783 285.608 237.207 284.952 236.279 284.952C235.351 284.952 234.759 285.608 234.759 286.648V291ZM250.438 291.208C248.054 291.208 246.326 289.4 246.326 287.16C246.326 284.936 247.974 283.128 250.182 283.128C252.374 283.128 254.054 284.808 254.054 287.016C254.054 287.272 254.038 287.576 254.006 287.704H248.326C248.534 288.76 249.334 289.496 250.502 289.496C251.286 289.496 251.942 289.16 252.39 288.696L253.398 290.04C252.806 290.696 251.718 291.208 250.438 291.208ZM250.214 284.776C249.286 284.776 248.614 285.416 248.374 286.344H252.038C251.798 285.32 251.11 284.776 250.214 284.776Z" fill="#333333"/>
<mask id="path-14-inside-2_4102_64101" fill="white">
<path d="M146 302H502V346H146V302Z"/>
</mask>
<path d="M146 302H502V346H146V302Z" fill="white"/>
<path d="M146 302V301H145V302H146ZM502 302H503V301H502V302ZM502 346V347H503V346H502ZM146 346H145V347H146V346ZM146 303H502V301H146V303ZM501 302V346H503V302H501ZM502 345H146V347H502V345ZM147 346V302H145V346H147Z" fill="#666666" mask="url(#path-14-inside-2_4102_64101)"/>
<path d="M159.19 328V319.026H160.45V326.81H165.098V328H159.19ZM169.076 328.168C167.032 328.168 165.562 326.586 165.562 324.64C165.562 322.694 166.976 321.126 168.88 321.126C170.756 321.126 172.184 322.624 172.184 324.514C172.184 324.682 172.17 324.934 172.142 325.032H166.836C166.99 326.194 167.872 327.062 169.118 327.062C169.874 327.062 170.546 326.768 170.994 326.32L171.652 327.174C171.106 327.762 170.154 328.168 169.076 328.168ZM168.894 322.19C167.844 322.19 167.088 322.946 166.864 324.01H170.882C170.658 322.848 169.902 322.19 168.894 322.19ZM176.716 328.168C174.798 328.168 173.3 326.586 173.3 324.64C173.3 322.694 174.798 321.126 176.716 321.126C178.648 321.126 180.146 322.694 180.146 324.64C180.146 326.586 178.648 328.168 176.716 328.168ZM176.73 327.006C177.99 327.006 178.9 325.942 178.9 324.64C178.9 323.324 177.99 322.288 176.73 322.288C175.456 322.288 174.546 323.324 174.546 324.64C174.546 325.942 175.456 327.006 176.73 327.006ZM186.091 328.014C185.685 327.902 185.153 327.636 184.481 327.202L185.083 326.11C185.881 326.628 186.945 326.964 187.855 326.964C188.947 326.964 189.787 326.502 189.787 325.578C189.787 323.66 184.775 324.57 184.775 321.378C184.775 319.852 186.161 318.844 187.953 318.844C189.101 318.844 190.067 319.138 190.837 319.684L190.207 320.72C189.633 320.356 188.765 320.034 187.897 320.034C186.847 320.034 186.119 320.594 186.119 321.35C186.119 323.394 191.117 322.498 191.117 325.494C191.117 327.286 189.591 328.168 187.771 328.168C187.057 328.168 186.497 328.112 186.091 328.014ZM194.012 330.744H192.78V321.294H194.012V322.498C194.516 321.672 195.314 321.126 196.364 321.126C198.184 321.126 199.612 322.624 199.612 324.654C199.612 326.642 198.24 328.168 196.364 328.168C195.314 328.168 194.516 327.664 194.012 326.838V330.744ZM196.21 327.006C197.47 327.006 198.38 325.97 198.38 324.654C198.38 323.352 197.47 322.288 196.21 322.288C194.936 322.288 194.012 323.352 194.012 324.654C194.012 325.97 194.936 327.006 196.21 327.006ZM204.124 328.168C202.304 328.168 200.876 326.67 200.876 324.64C200.876 322.652 202.248 321.126 204.124 321.126C205.174 321.126 205.972 321.63 206.476 322.456V321.294H207.722V328H206.476V326.796C205.972 327.622 205.174 328.168 204.124 328.168ZM204.306 327.006C205.566 327.006 206.476 325.942 206.476 324.64C206.476 323.324 205.566 322.288 204.306 322.288C203.032 322.288 202.122 323.324 202.122 324.64C202.122 325.942 203.032 327.006 204.306 327.006ZM214.726 322.946C214.264 322.526 213.69 322.288 212.948 322.288C211.618 322.288 210.708 323.324 210.708 324.64C210.708 325.942 211.632 327.006 212.934 327.006C213.676 327.006 214.306 326.768 214.754 326.32L215.398 327.23C214.866 327.804 213.928 328.168 212.906 328.168C210.946 328.168 209.462 326.586 209.462 324.64C209.462 322.694 210.96 321.126 212.92 321.126C213.984 321.126 214.88 321.49 215.44 322.064L214.726 322.946ZM219.607 328.168C217.563 328.168 216.093 326.586 216.093 324.64C216.093 322.694 217.507 321.126 219.411 321.126C221.287 321.126 222.715 322.624 222.715 324.514C222.715 324.682 222.701 324.934 222.673 325.032H217.367C217.521 326.194 218.403 327.062 219.649 327.062C220.405 327.062 221.077 326.768 221.525 326.32L222.183 327.174C221.637 327.762 220.685 328.168 219.607 328.168ZM219.425 322.19C218.375 322.19 217.619 322.946 217.395 324.01H221.413C221.189 322.848 220.433 322.19 219.425 322.19ZM225.553 328H224.321V321.294H225.553V322.358C225.917 321.602 226.617 321.126 227.527 321.126C228.605 321.126 229.417 321.672 229.795 322.61C230.117 321.742 230.845 321.126 231.923 321.126C233.477 321.126 234.485 322.176 234.485 323.898V328H233.239V324.094C233.239 322.988 232.637 322.288 231.629 322.288C230.635 322.288 230.019 322.988 230.019 324.094V328H228.773V324.094C228.773 322.988 228.171 322.288 227.177 322.288C226.169 322.288 225.553 322.988 225.553 324.094V328ZM239.357 328.168C237.537 328.168 236.109 326.67 236.109 324.64C236.109 322.652 237.481 321.126 239.357 321.126C240.407 321.126 241.205 321.63 241.709 322.456V321.294H242.955V328H241.709V326.796C241.205 327.622 240.407 328.168 239.357 328.168ZM239.539 327.006C240.799 327.006 241.709 325.942 241.709 324.64C241.709 323.324 240.799 322.288 239.539 322.288C238.265 322.288 237.355 323.324 237.355 324.64C237.355 325.942 238.265 327.006 239.539 327.006ZM245.184 328V321.294H246.416V322.316C246.794 321.574 247.508 321.126 248.446 321.126C250.014 321.126 251.036 322.204 251.036 323.898V328H249.804V324.094C249.804 322.988 249.16 322.288 248.11 322.288C247.06 322.288 246.416 322.988 246.416 324.094V328H245.184ZM253.589 326.404C254.093 326.404 254.457 326.768 254.457 327.244C254.457 327.524 254.373 327.762 254.205 328.056L253.211 329.792H252.483L253.309 328.014C252.959 327.888 252.735 327.636 252.735 327.244C252.735 326.754 253.127 326.404 253.589 326.404ZM263.888 326.236L260.542 321.042V328H259.282V319.026H260.724L263.944 324.066L267.192 319.026H268.48V328H267.22V321.168L263.888 326.236ZM270.862 328V319.04H273.606C276.588 319.04 278.66 320.874 278.66 323.52C278.66 326.166 276.644 328 273.732 328H270.862ZM273.634 320.23H272.15V326.81H273.634C275.86 326.81 277.316 325.508 277.316 323.52C277.316 321.532 275.86 320.23 273.634 320.23Z" fill="#666666"/>
</svg>
